<svg xmlns="http://www.w3.org/2000/svg" width="24" height="24" viewBox="0 0 24 24"><path d="M21.25 10a.75.75 0 0 1 .75.75v9.5A1.75 1.75 0 0 1 20.25 22H3.75A1.75 1.75 0 0 1 2 20.25v-9.5a.75.75 0 0 1 1.5 0v9.5c0 .138.112.25.25.25h16.5a.25.25 0 0 0 .25-.25v-9.5a.75.75 0 0 1 .75-.75m-7 1.5a.75.75 0 0 1 0 1.5h-4.5a.75.75 0 0 1 0-1.5Zm7-9.5c.966 0 1.75.784 1.75 1.75v3.5A1.75 1.75 0 0 1 21.25 9H2.75A1.75 1.75 0 0 1 1 7.25v-3.5C1 2.784 1.784 2 2.75 2zm0 1.5H2.75a.25.25 0 0 0-.25.25v3.5c0 .138.112.25.25.25h18.5a.25.25 0 0 0 .25-.25v-3.5a.25.25 0 0 0-.25-.25"/></svg>