<svg xmlns="http://www.w3.org/2000/svg" width="24" height="24" viewBox="0 0 24 24"><path d="M1.237 1.221a.75.75 0 0 1 1.06 0l20.5 20.5a.75.75 0 1 1-1.06 1.06l-3.78-3.78h-2.44a3.499 3.499 0 0 1-5.25 3.031 3.5 3.5 0 0 1-1.75-3.031H3.535a1.514 1.514 0 0 1-1.263-2.36l2.2-3.298a3.24 3.24 0 0 0 .545-1.803V7.001q0-.441.073-.866L1.237 2.281a.75.75 0 0 1 0-1.06m5.28 6.34h-.001v3.979a4.75 4.75 0 0 1-.797 2.635l-2.2 3.298-.003.01.001.007.004.006.006.004.007.001h12.923zm3.5 11.44a2 2 0 0 0 4 0zm2-16.5c-1.463 0-2.8.485-3.788 1.257l-.04.032a.749.749 0 1 1-.935-1.173l.05-.04c1.261-.986 2.925-1.576 4.713-1.576 3.681 0 7 2.565 7 6v4.539c0 .642.19 1.269.546 1.803l1.328 1.992a.75.75 0 1 1-1.248.832l-1.328-1.992a4.75 4.75 0 0 1-.798-2.635V7.001c0-2.364-2.383-4.5-5.5-4.5"/></svg>