<svg xmlns="http://www.w3.org/2000/svg" width="24" height="24" viewBox="0 0 24 24"><path d="M12.002 1c3.681 0 7 2.565 7 6v4.539c0 .642.189 1.269.545 1.803l2.2 3.298A1.519 1.519 0 0 1 20.484 19h-4.982a3.5 3.5 0 0 1-7 0H3.521a1.517 1.517 0 0 1-1.265-2.359l2.2-3.299a3.25 3.25 0 0 0 .546-1.803V7c0-3.435 3.318-6 7-6m-5.5 6v4.539a4.75 4.75 0 0 1-.797 2.635l-2.2 3.298-.003.01.001.007.004.006.006.004.007.001h16.964l.007-.001.006-.004.004-.006.001-.006-.003-.01-2.199-3.299a4.75 4.75 0 0 1-.798-2.635V7c0-2.364-2.383-4.5-5.5-4.5s-5.5 2.136-5.5 4.5m7.5 12h-4a2 2 0 1 0 4 0"/></svg>