<svg xmlns="http://www.w3.org/2000/svg" width="17" height="16" viewBox="0 0 17 16"><path d="m4.199 4.311.016.011 10.104 7.316.013.01 1.375.996a.748.748 0 0 1-.123 1.307.75.75 0 0 1-.757-.093l-1.184-.857H2.535a1.514 1.514 0 0 1-1.263-2.36l1.703-2.554a.25.25 0 0 0 .042-.139V5.306L.327 3.358a.75.75 0 1 1 .88-1.214zm7.373 7.19L4.517 6.392v1.556c0 .346-.102.683-.294.97L2.52 11.474l-.003.01q0 .007.005.012l.006.004.007.001zm-3.555-10c-.997 0-1.895.416-2.534 1.086a.75.75 0 1 1-1.086-1.036 5 5 0 0 1 8.62 3.45v2.373a.75.75 0 0 1-1.5 0V5.001a3.5 3.5 0 0 0-3.5-3.5m0 14.5a2 2 0 0 1-1.985-1.75c-.017-.137.097-.25.235-.25h3.5c.138 0 .252.113.235.25a2 2 0 0 1-1.985 1.75"/></svg>