<svg xmlns="http://www.w3.org/2000/svg" width="16" height="16" viewBox="0 0 16 16"><path d="M8.002 16a2 2 0 0 0 1.985-1.75c.017-.137-.097-.25-.235-.25h-3.5c-.138 0-.252.113-.235.25A2 2 0 0 0 8.002 16Zm-5-11a5 5 0 1 1 10 0v2.947c0 .05.015.098.042.139l1.703 2.555A1.52 1.52 0 0 1 13.484 13H2.52a1.517 1.517 0 0 1-1.263-2.36L2.96 8.086a.263.263 0 0 0 .042-.139V5Zm5-3.5a3.5 3.5 0 0 0-3.5 3.5v2.947c0 .346-.102.683-.294.97l-1.703 2.556a.017.017 0 0 0-.003.01l.001.006c0 .002.002.004.004.006l.006.004.007.001h10.964l.007-.001.006-.004.004-.006.001-.007a.017.017 0 0 0-.003-.01l-1.703-2.554a1.745 1.745 0 0 1-.294-.97V5a3.5 3.5 0 0 0-3.5-3.5Z"/></svg>