<svg xmlns="http://www.w3.org/2000/svg" width="24" height="24" viewBox="0 0 24 24"><path d="M7.517 1.75c0-.966.784-1.75 1.75-1.75h5.5c.966 0 1.75.784 1.75 1.75V4h4.75c.966 0 1.75.784 1.75 1.75v14.5a1.75 1.75 0 0 1-1.75 1.75h-18.5a1.75 1.75 0 0 1-1.75-1.75V5.75c0-.966.784-1.75 1.75-1.75h4.75zm-5 10.24v8.26c0 .138.112.25.25.25h18.5a.25.25 0 0 0 .25-.25v-8.26a4.24 4.24 0 0 1-2.75 1.01h-13.5a4.24 4.24 0 0 1-2.75-1.01m19-3.24v-3a.25.25 0 0 0-.25-.25h-18.5a.25.25 0 0 0-.25.25v3a2.75 2.75 0 0 0 2.75 2.75h13.5a2.75 2.75 0 0 0 2.75-2.75m-6.5-7a.25.25 0 0 0-.25-.25h-5.5a.25.25 0 0 0-.25.25V4h6z"/></svg>