<svg xmlns="http://www.w3.org/2000/svg" width="17" height="16" viewBox="0 0 17 16"><path d="M6.767 0h2.5c.966 0 1.75.784 1.75 1.75V3h3.25c.966 0 1.75.784 1.75 1.75v8.5a1.75 1.75 0 0 1-1.75 1.75h-12.5a1.75 1.75 0 0 1-1.75-1.75v-8.5C.017 3.784.801 3 1.767 3h3.25V1.75c0-.966.784-1.75 1.75-1.75Zm-3.25 9.5a3.49 3.49 0 0 1-2-.627v4.377c0 .138.112.25.25.25h12.5a.25.25 0 0 0 .25-.25V8.873a3.488 3.488 0 0 1-2 .627h-9Zm-1.75-5a.25.25 0 0 0-.25.25V6a2 2 0 0 0 2 2h9a2 2 0 0 0 2-2V4.75a.25.25 0 0 0-.25-.25h-12.5ZM9.517 3V1.75a.25.25 0 0 0-.25-.25h-2.5a.25.25 0 0 0-.25.25V3h3Z"/></svg>