<svg xmlns="http://www.w3.org/2000/svg" width="24" height="24" viewBox="0 0 24 24"><path d="M20.485 2.265a.75.75 0 0 0-1.06 1.06A10.47 10.47 0 0 1 22.5 10.75c0 2.9-1.174 5.523-3.075 7.424a.75.75 0 0 0 1.06 1.061A11.96 11.96 0 0 0 24 10.75c0-3.314-1.344-6.315-3.515-8.485m-15.91 1.06a.75.75 0 0 0-1.06-1.06A11.96 11.96 0 0 0 0 10.75c0 3.313 1.344 6.314 3.515 8.485a.75.75 0 0 0 1.06-1.06A10.47 10.47 0 0 1 1.5 10.75c0-2.9 1.174-5.524 3.075-7.425M8.11 6.86A.75.75 0 0 0 7.05 5.8 6.98 6.98 0 0 0 5 10.75a6.98 6.98 0 0 0 2.05 4.95.75.75 0 0 0 1.06-1.061 5.48 5.48 0 0 1-1.61-3.89 5.48 5.48 0 0 1 1.61-3.888zm8.84-1.06a.75.75 0 1 0-1.06 1.06 5.48 5.48 0 0 1 1.61 3.89 5.48 5.48 0 0 1-1.61 3.889.748.748 0 0 0 .326 1.275.75.75 0 0 0 .734-.215A6.98 6.98 0 0 0 19 10.75a6.98 6.98 0 0 0-2.05-4.949zM14 10.75a2 2 0 0 1-1.25 1.855V21a.75.75 0 0 1-1.5 0v-8.395a2.001 2.001 0 0 1 1.005-3.838A2 2 0 0 1 14 10.75"/></svg>