<svg xmlns="http://www.w3.org/2000/svg" width="16" height="16" viewBox="0 0 16 16"><path d="M8.75 8.332V14a.75.75 0 0 1-1.5 0V8.332a1.75 1.75 0 1 1 1.5 0Zm3.983-7.125a.75.75 0 0 1 1.06.026A7.976 7.976 0 0 1 16 6.75c0 2.139-.84 4.083-2.207 5.517a.75.75 0 1 1-1.086-1.034A6.477 6.477 0 0 0 14.5 6.75a6.474 6.474 0 0 0-1.793-4.483.75.75 0 0 1 .026-1.06Zm-9.466 0c.3.286.312.76.026 1.06A6.474 6.474 0 0 0 1.5 6.75a6.471 6.471 0 0 0 1.793 4.483.75.75 0 0 1-1.086 1.034A7.973 7.973 0 0 1 0 6.75c0-2.139.84-4.083 2.207-5.517a.75.75 0 0 1 1.06-.026Zm8.556 2.321A4.986 4.986 0 0 1 13 6.75a4.988 4.988 0 0 1-1.177 3.222.75.75 0 1 1-1.146-.967c.533-.631.824-1.43.823-2.255 0-.86-.309-1.645-.823-2.255a.751.751 0 0 1 1.146-.967Zm-6.492.958A3.477 3.477 0 0 0 4.5 6.75c-.002.825.29 1.624.823 2.255a.75.75 0 0 1-1.146.967A4.982 4.982 0 0 1 3 6.75a4.982 4.982 0 0 1 1.188-3.236.749.749 0 1 1 1.143.972Z"/></svg>