<svg xmlns="http://www.w3.org/2000/svg" width="24" height="24" viewBox="0 0 24 24"><path d="M7.72.232a.749.749 0 0 1 1.06 0l1.204 1.203A4.98 4.98 0 0 1 12 1.012c.717 0 1.4.151 2.016.423L15.22.232a.751.751 0 0 1 1.042.018.751.751 0 0 1 .018 1.042l-.971.972A4.99 4.99 0 0 1 17 6.012v1.104a2.755 2.755 0 0 1 1.917 1.974l1.998-.999a.75.75 0 0 1 .67 1.342L19 10.726v2.786l3.25.003a.75.75 0 0 1 0 1.5L19 15.013v.999c0 .568-.068 1.134-.204 1.686l.04.018 2.75 1.375a.749.749 0 0 1 .078 1.297.752.752 0 0 1-.749.045l-2.638-1.319A6.998 6.998 0 0 1 12 23.012a6.998 6.998 0 0 1-6.197-3.742l-2.758 1.181a.752.752 0 0 1-1.064-.776.752.752 0 0 1 .474-.602l2.795-1.199A6.976 6.976 0 0 1 5 16.012v-.996H1.75a.75.75 0 0 1 0-1.5H5v-2.79L2.415 9.432a.75.75 0 0 1 .67-1.342l1.998.999A2.756 2.756 0 0 1 7 7.116V6.012a4.99 4.99 0 0 1 1.69-3.748l-.97-.972a.75.75 0 0 1 0-1.06ZM6.5 9.762v6.25a5.5 5.5 0 0 0 11 0v-6.25c0-.69-.56-1.25-1.25-1.25h-8.5c-.69 0-1.25.56-1.25 1.25Zm2-2.75h7v-1a3.499 3.499 0 0 0-5.25-3.031A3.499 3.499 0 0 0 8.5 6.012v1Z"/></svg>