<svg xmlns="http://www.w3.org/2000/svg" width="24" height="24" viewBox="0 0 24 24"><path d="M18.75 2c.966 0 1.75.784 1.75 1.75v10a.75.75 0 0 1-1.5 0v-10a.25.25 0 0 0-.25-.25H5.25a.25.25 0 0 0-.25.25v16.5c0 .138.112.25.25.25h7a.75.75 0 0 1 0 1.5h-7a1.75 1.75 0 0 1-1.75-1.75V3.75C3.5 2.784 4.284 2 5.25 2Zm3.47 13.22a.749.749 0 0 1 1.275.326.75.75 0 0 1-.215.734l-5.5 5.5a.75.75 0 0 1-1.06 0l-2.5-2.5a.749.749 0 0 1 .326-1.275.75.75 0 0 1 .734.215l1.97 1.97ZM12.25 11a.75.75 0 0 1 0 1.5h-4.5a.75.75 0 0 1-.743-.648L7 11.75a.75.75 0 0 1 .75-.75zm4-4a.75.75 0 0 1 0 1.5h-8.5a.75.75 0 0 1 0-1.5Z"/></svg>