<svg xmlns="http://www.w3.org/2000/svg" width="24" height="24" viewBox="0 0 24 24"><path d="M3.103 10.606c0-4.244 3.445-7.607 7.733-7.607 3.19 0 5.912 1.858 7.099 4.563l.01.022.001.006C21.348 7.844 24 10.594 24 14.035c0 3.612-2.924 6.464-6.569 6.464H5.017C2.23 20.499 0 18.329 0 15.559a4.9 4.9 0 0 1 3.112-4.581 8 8 0 0 1-.009-.372m7.733-6.107c-3.485 0-6.233 2.717-6.233 6.107 0 .284.022.602.052.756a.75.75 0 0 1-.552.869c-1.52.385-2.603 1.712-2.603 3.328 0 1.917 1.532 3.44 3.517 3.44h12.414c2.843 0 5.069-2.206 5.069-4.964S20.274 9.07 17.431 9.07a.75.75 0 0 1-.696-.47l-.179-.446c-.95-2.155-3.132-3.655-5.72-3.655"/></svg>