<svg xmlns="http://www.w3.org/2000/svg" width="16" height="16" viewBox="0 0 16 16"><path d="M7.25 1.949c-.69 0-1.351.13-1.957.371a.75.75 0 1 0 .554 1.394c.43-.17.903-.265 1.403-.265a3.72 3.72 0 0 1 3.541 2.496.75.75 0 0 0 .709.504c1.676 0 3 1.324 3 3a3 3 0 0 1-.681 1.92.75.75 0 0 0 1.156.955A4.491 4.491 0 0 0 16 9.449a4.473 4.473 0 0 0-3.983-4.471A5.222 5.222 0 0 0 7.25 1.949Zm-6.53-.28a.75.75 0 0 1 1.06 0l2.311 2.31c.03.025.056.052.08.08l8.531 8.532.035.034 2.043 2.044a.75.75 0 1 1-1.06 1.06l-1.8-1.799c-.139.013-.28.019-.42.019h-8a3.473 3.473 0 0 1-3.5-3.5c0-1.41.809-2.614 2.001-3.17a5.233 5.233 0 0 1 .646-2.622L.72 2.729a.75.75 0 0 1 0-1.06Zm2.78 5.53c.004.161.018.322.041.481a.75.75 0 0 1-.557.833c-.86.22-1.484.986-1.484 1.936 0 1.124.876 2 2 2h6.94L3.771 5.781c-.18.451-.272.933-.271 1.418Z"/></svg>