<svg xmlns="http://www.w3.org/2000/svg" width="16" height="16" viewBox="0 0 16 16"><path d="M9.5 1.5a1.5 1.5 0 1 1-3 0 1.5 1.5 0 1 1 3 0Zm2.616 1.371a1 1 0 1 1-1.732-1.001 1 1 0 0 1 1.732 1.001Zm2.013 2.745a1 1 0 1 1-1-1.733 1 1 0 0 1 1 1.733Zm-1 6.5a1 1 0 1 1 1.001-1.732 1 1 0 0 1-1.001 1.732Zm-2.745 2.013a1 1 0 1 1 1.733-1 1 1 0 0 1-1.733 1Zm-6.5-1a1 1 0 1 1 1.732 1.001 1 1 0 0 1-1.732-1.001Zm-2.013-2.745a1 1 0 1 1 1 1.733 1 1 0 0 1-1-1.733Zm1-6.5A1 1 0 1 1 1.87 5.616a1 1 0 0 1 1-1.732Zm2.745-2.013a1 1 0 1 1-1.733 1 1 1 0 0 1 1.733-1ZM8 13a.75.75 0 0 1 .75.75v1.5A.75.75 0 0 1 8 16a.75.75 0 0 1-.75-.75v-1.5A.75.75 0 0 1 8 13ZM.75 7.25h1.5A.75.75 0 0 1 3 8a.75.75 0 0 1-.75.75H.75A.75.75 0 0 1 0 8a.75.75 0 0 1 .75-.75Zm13 0h1.5A.75.75 0 0 1 16 8a.75.75 0 0 1-.75.75h-1.5A.75.75 0 0 1 13 8a.75.75 0 0 1 .75-.75Z"/></svg>