<svg xmlns="http://www.w3.org/2000/svg" width="24" height="24" viewBox="0 0 24 24"><path d="M12 0a1.5 1.5 0 1 1-.001 3.001A1.5 1.5 0 0 1 12 0m8 11.5h3.25a.75.75 0 0 1 0 1.5H20zm-19.25 0H4V13H.75a.75.75 0 0 1 0-1.5m10.5 8.5h1.5v3.25a.75.75 0 0 1-1.5 0zM18 1.608a.75.75 0 0 1 .275 1.024l-.75 1.299a.75.75 0 0 1-1.3-.75l.75-1.299A.75.75 0 0 1 18 1.608m4.398 4.398a.75.75 0 0 1-.274 1.024l-1.299.75a.75.75 0 1 1-.75-1.299l1.299-.75a.75.75 0 0 1 1.024.275m0 12.016a.75.75 0 0 1-1.024.274l-1.299-.75a.75.75 0 1 1 .75-1.299l1.299.75a.75.75 0 0 1 .274 1.025M18 22.42a.75.75 0 0 1-1.025-.274l-.75-1.299a.75.75 0 0 1 1.3-.75l.75 1.299A.75.75 0 0 1 18 22.42m-12.016 0a.75.75 0 0 1-.275-1.024l.75-1.299a.75.75 0 0 1 1.299.75l-.75 1.299a.75.75 0 0 1-1.024.274m-4.398-4.398a.75.75 0 0 1 .274-1.025l1.299-.75a.75.75 0 0 1 .75 1.299l-1.299.75a.75.75 0 0 1-1.024-.274m0-12.016a.75.75 0 0 1 1.024-.275l1.299.75a.75.75 0 1 1-.75 1.299L1.86 7.03a.75.75 0 0 1-.274-1.024m4.398-4.398a.75.75 0 0 1 1.024.274l.75 1.299a.75.75 0 1 1-1.299.75l-.75-1.299a.75.75 0 0 1 .275-1.024"/></svg>