<svg xmlns="http://www.w3.org/2000/svg" width="24" height="24" viewBox="0 0 24 24"><path d="M13.152.681a2.251 2.251 0 0 1 2.269 0l.007.004 6.957 4.276a2.278 2.278 0 0 1 1.126 1.964v7.516c0 .81-.432 1.56-1.133 1.968l-.002.001-11.964 7.037-.004.003c-.706.41-1.578.41-2.284 0l-.026-.015-6.503-4.502A2.267 2.267 0 0 1 .499 16.99V9.437c0-.392.1-.77.284-1.1l.003-.006.014-.026c.197-.342.48-.627.82-.827h.002L13.152.68v.001Zm.757 1.295h-.001L2.648 8.615l6.248 4.247a.772.772 0 0 0 .758-.01h.001l11.633-6.804-6.629-4.074a.752.752 0 0 0-.75.003v-.001ZM8.517 14.329a2.212 2.212 0 0 1-.393-.18l-.023-.014-6.102-4.147v7.003c0 .275.145.528.379.664l.025.014 6.114 4.232v-7.572ZM18 9.708l-3.25 1.9v7.548L18 17.244V9.708Zm-7.59 4.438-.002.002a2.162 2.162 0 0 1-.391.18v7.612l3.233-1.902v-7.552l-2.84 1.66ZM19.5 8.83v7.532l2.124-1.25a.775.775 0 0 0 .387-.671V7.362L19.5 8.83Z"/></svg>