<svg xmlns="http://www.w3.org/2000/svg" width="16" height="16" viewBox="0 0 16 16"><path d="m10.41.239 4.711 2.774c.544.316.878.897.879 1.526v5.01c0 .631-.335 1.214-.88 1.53L7.367 15.6l-.002.001a1.77 1.77 0 0 1-1.774 0H5.59L.873 12.849A1.76 1.76 0 0 1 0 11.326V6.291c0-.304.078-.598.22-.855l.004-.005.01-.019c.15-.262.369-.486.64-.643L8.641.238a1.76 1.76 0 0 1 1.765 0l.002.001zM9.397 1.533l-7.17 4.182 4.116 2.388a.27.27 0 0 0 .269 0l7.152-4.148-4.115-2.422a.25.25 0 0 0-.252 0m-7.768 10.02 4.1 2.393V9.473a2 2 0 0 1-.138-.072L1.5 7.028v4.298c0 .095.05.181.129.227m8.6.642 1.521-.887v-4.45l-1.521.882zM7.365 9.401h.001q-.066.038-.136.071v4.472l1.5-.875v-4.46zm5.885 1.032 1.115-.65h.002a.27.27 0 0 0 .133-.232V5.263l-1.25.725z"/></svg>