<svg xmlns="http://www.w3.org/2000/svg" width="16" height="16" viewBox="0 0 16 16"><path d="M1.75 3.5a.25.25 0 0 0-.25.25v7.5c0 .138.112.25.25.25h2a.75.75 0 0 1 .75.75v2.19l2.72-2.72a.75.75 0 0 1 .53-.22h4.5a.25.25 0 0 0 .25-.25v-2.5a.75.75 0 0 1 1.5 0v2.5A1.75 1.75 0 0 1 12.25 13H8.06l-2.573 2.573A1.46 1.46 0 0 1 3 14.543V13H1.75A1.75 1.75 0 0 1 0 11.25v-7.5C0 2.784.784 2 1.75 2h5.5a.75.75 0 0 1 0 1.5zM15 1.25v4.146a.25.25 0 0 1-.427.177L13.03 4.03 9.28 7.78a.75.75 0 1 1-1.06-1.06l3.75-3.75-1.543-1.543A.25.25 0 0 1 10.604 1h4.146a.25.25 0 0 1 .25.25"/></svg>