<svg xmlns="http://www.w3.org/2000/svg" width="24" height="24" viewBox="0 0 24 24"><path d="M8.25 3a.75.75 0 0 1 0 1.5h-5.5a.25.25 0 0 0-.25.25v11.5c0 .138.112.25.25.25h18.5a.25.25 0 0 0 .25-.25V4.75a.25.25 0 0 0-.25-.25h-5.5a.75.75 0 0 1 0-1.5h5.5c.966 0 1.75.784 1.75 1.75v11.5A1.75 1.75 0 0 1 21.25 18h-6.204c.171 1.375.805 2.652 1.769 3.757A.753.753 0 0 1 16.25 23h-8.5a.75.75 0 0 1-.566-1.243c.965-1.105 1.599-2.382 1.77-3.757H2.75A1.75 1.75 0 0 1 1 16.25V4.75C1 3.784 1.784 3 2.75 3zm5.287 15h-3.074c-.126 1.266-.564 2.445-1.223 3.5h5.52c-.66-1.055-1.098-2.234-1.223-3.5M12 1a.75.75 0 0 1 .75.75v8.58l1.949-2.11A.75.75 0 1 1 15.8 9.237l-3.25 3.52a.75.75 0 0 1-1.102 0l-3.25-3.52A.75.75 0 1 1 9.3 8.22l1.949 2.111.001-8.581A.75.75 0 0 1 12 1"/></svg>