<svg xmlns="http://www.w3.org/2000/svg" width="16" height="16" viewBox="0 0 16 16"><path d="M4.75 1a.75.75 0 0 1 0 1.5h-3a.25.25 0 0 0-.25.25v7.5c0 .138.112.25.25.25h12.5a.25.25 0 0 0 .25-.25v-7.5a.25.25 0 0 0-.25-.25h-3a.75.75 0 0 1 0-1.5h3c.966 0 1.75.784 1.75 1.75v7.5A1.75 1.75 0 0 1 14.25 12h-3.727c.099 1.041.52 1.872 1.292 2.757A.752.752 0 0 1 11.25 16h-6.5a.75.75 0 0 1-.565-1.243c.772-.885 1.192-1.716 1.292-2.757H1.75A1.75 1.75 0 0 1 0 10.25v-7.5C0 1.784.784 1 1.75 1zm4.268 11H6.982a5.7 5.7 0 0 1-.765 2.5h3.566a5.7 5.7 0 0 1-.765-2.5M8 0a.75.75 0 0 1 .75.75V5h2.146a.25.25 0 0 1 .177.427L8.177 8.323a.25.25 0 0 1-.354 0L4.927 5.427A.25.25 0 0 1 5.104 5H7.25V.75A.75.75 0 0 1 8 0"/></svg>