<svg xmlns="http://www.w3.org/2000/svg" width="16" height="16" viewBox="0 0 16 16"><path d="M14.25 0C15.216 0 16 .784 16 1.75V4a.75.75 0 0 1-1.5 0V1.75a.25.25 0 0 0-.25-.25H1.75a.25.25 0 0 0-.25.25v7.5c0 .138.112.25.25.25H7A.75.75 0 0 1 7 11h-.268a5.7 5.7 0 0 1-.765 2.5H7A.75.75 0 0 1 7 15H4.5a.75.75 0 0 1-.565-1.243c.772-.885 1.193-1.716 1.292-2.757H1.75A1.75 1.75 0 0 1 0 9.25v-7.5C0 .784.784 0 1.75 0zm0 6c.967 0 1.75.784 1.75 1.75v5.5A1.75 1.75 0 0 1 14.25 15h-3.5A1.75 1.75 0 0 1 9 13.25v-5.5C9 6.784 9.783 6 10.75 6zm0 1.5h-3.5a.25.25 0 0 0-.25.25v5.5c0 .138.112.25.25.25h3.5a.25.25 0 0 0 .25-.25v-5.5a.25.25 0 0 0-.25-.25"/></svg>