<?xml version="1.0" encoding="UTF-8"?>
<svg width="24px" height="24px" viewBox="0 0 24 24" version="1.1" xmlns="http://www.w3.org/2000/svg" xmlns:xlink="http://www.w3.org/1999/xlink">
    <title>icon/24/engine-24</title>
    <g id="icon/24/engine-24" stroke="none" stroke-width="1" fill="none" fill-rule="evenodd">
        <path d="M13,1 C14.6568542,1 16,2.34314575 16,4 L16,23 L4,23 L4,4 C4,2.34314575 5.34314575,1 7,1 L13,1 Z M13,3 L7,3 C6.44771525,3 6,3.44771525 6,4 L6,7 C6,7.55228475 6.44771525,8 7,8 L13,8 C13.5522847,8 14,7.55228475 14,7 L14,4 C14,3.44771525 13.5522847,3 13,3 Z" id="Combined-Shape" fill="#000000"></path>
        <path d="M15,15 C15,21 21,23 21,19 C21,16 18.5,17 18.5,11 C18.5,10.313295 18.5,8.97996163 18.5,7" id="Path-2" stroke="#000000" stroke-width="1.5"></path>
        <path d="M17.75,6 L18.5,6 C19.3284271,6 20,6.67157288 20,7.5 L20,9.5 C20,10.3284271 19.3284271,11 18.5,11 L17.75,11 C17.3357864,11 17,10.6642136 17,10.25 L17,6.75 C17,6.33578644 17.3357864,6 17.75,6 Z" id="Rectangle" fill="#000000"></path>
        <path d="M17.75,3 C18.1642136,3 18.5,3.33578644 18.5,3.75 L18.5,8 L18.5,8 L17,8 L17,3.75 C17,3.33578644 17.3357864,3 17.75,3 Z" id="Rectangle" fill="#000000" transform="translate(17.75, 5.5) rotate(-20) translate(-17.75, -5.5)"></path>
    </g>
</svg>