<svg xmlns="http://www.w3.org/2000/svg" width="24" height="24" viewBox="0 0 24 24"><g fill-rule="evenodd"><path d="M13 1a3 3 0 0 1 3 3v19H4V4a3 3 0 0 1 3-3zm0 2H7a1 1 0 0 0-1 1v3a1 1 0 0 0 1 1h6a1 1 0 0 0 1-1V4a1 1 0 0 0-1-1"/><path stroke="#000" stroke-width="1.5" d="M15 15c0 6 6 8 6 4 0-3-2.5-2-2.5-8V7"/><path d="M17.75 6h.75A1.5 1.5 0 0 1 20 7.5v2a1.5 1.5 0 0 1-1.5 1.5h-.75a.75.75 0 0 1-.75-.75v-3.5a.75.75 0 0 1 .75-.75"/><path d="M16.895 3.15a.75.75 0 0 1 .961.449l1.454 3.994-1.41.513-1.453-3.994a.75.75 0 0 1 .448-.961"/></g></svg>