<svg xmlns="http://www.w3.org/2000/svg" width="24" height="24" viewBox="0 0 24 24"><path d="M9.721 3a1.75 1.75 0 0 1 1.447.765l1.404 2.063c.046.069.124.11.207.11h8.471c.966 0 1.75.783 1.75 1.75V19.25A1.75 1.75 0 0 1 21.25 21H5.75a.75.75 0 0 1 0-1.5h15.5a.25.25 0 0 0 .25-.25V7.688a.25.25 0 0 0-.25-.25h-8.471a1.75 1.75 0 0 1-1.447-.766L9.928 4.609a.25.25 0 0 0-.207-.109H4.75a.25.25 0 0 0-.25.25v3.5a.75.75 0 0 1-1.5 0v-3.5C3 3.784 3.784 3 4.75 3zm-.425 6.236 3.294 3.5a.75.75 0 0 1 0 1.028l-3.294 3.5a.749.749 0 0 1-1.275-.293.75.75 0 0 1 .183-.735L10.308 14H5.09a2.59 2.59 0 0 0-2.59 2.59v3.16a.75.75 0 0 1-1.5 0v-3.16a4.09 4.09 0 0 1 4.09-4.09h5.218l-2.104-2.236a.751.751 0 0 1 .369-1.255.75.75 0 0 1 .723.227"/></svg>