<svg xmlns="http://www.w3.org/2000/svg" width="16" height="16" viewBox="0 0 16 16"><path d="M10.336 0c.464 0 .909.184 1.237.513l2.914 2.914c.329.328.513.773.513 1.237v9.586A1.75 1.75 0 0 1 13.25 16h-3.5a.75.75 0 0 1 0-1.5h3.5a.25.25 0 0 0 .25-.25V4.664a.25.25 0 0 0-.073-.177l-2.914-2.914a.25.25 0 0 0-.177-.073H3.75a.25.25 0 0 0-.25.25v6.5a.75.75 0 0 1-1.5 0v-6.5C2 .784 2.784 0 3.75 0zM5.154 8.873a.25.25 0 0 1 .273.054l3.146 3.146a.25.25 0 0 1 0 .354l-3.146 3.146A.25.25 0 0 1 5 15.396V13H.75a.75.75 0 0 1 0-1.5H5V9.104a.25.25 0 0 1 .154-.231"/></svg>