<svg xmlns="http://www.w3.org/2000/svg" width="24" height="24" viewBox="0 0 24 24"><path d="M4 3a2 2 0 0 1 2-2h9.982a2 2 0 0 1 1.414.586l4.018 4.018A2 2 0 0 1 22 7.018V21a2 2 0 0 1-2 2H5.75a.75.75 0 0 1 0-1.5H20a.5.5 0 0 0 .5-.5V8.5h-4a2 2 0 0 1-2-2v-4H6a.5.5 0 0 0-.5.5v6.25a.75.75 0 0 1-1.5 0zm6.308 11.5-2.104-2.236a.751.751 0 1 1 1.092-1.028l3.294 3.5a.75.75 0 0 1 0 1.028l-3.294 3.5a.75.75 0 1 1-1.092-1.028L10.308 16H5.09a2.59 2.59 0 0 0-2.59 2.59v3.16a.75.75 0 0 1-1.5 0v-3.16a4.09 4.09 0 0 1 4.09-4.09zM16 2.5v4a.5.5 0 0 0 .5.5h4a.5.5 0 0 0-.146-.336l-4.018-4.018A.5.5 0 0 0 16 2.5"/></svg>