<svg xmlns="http://www.w3.org/2000/svg" width="24" height="24" viewBox="0 0 24 24"><path d="M14.982 1a2 2 0 0 1 1.414.586l4.018 4.018A2 2 0 0 1 21 7.018V21a2 2 0 0 1-2 2H5.75a.75.75 0 0 1 0-1.5H19a.5.5 0 0 0 .5-.5V8.5h-4a2 2 0 0 1-2-2v-4H5a.5.5 0 0 0-.5.5v7.25a.75.75 0 0 1-1.5 0V3a2 2 0 0 1 2-2zM8.046 12.023a.75.75 0 0 1 .734.216l3 3a.75.75 0 0 1 0 1.06l-3 3a.75.75 0 0 1-.734.215.748.748 0 0 1-.326-1.275l1.72-1.72H.75a.75.75 0 1 1 0-1.5h8.69l-1.72-1.72a.749.749 0 0 1 .326-1.276M15 2.5v4a.5.5 0 0 0 .5.5h4a.5.5 0 0 0-.146-.336l-4.018-4.018A.5.5 0 0 0 15 2.5"/></svg>