<svg xmlns="http://www.w3.org/2000/svg" width="24" height="24" viewBox="0 0 24 24"><path d="M12 17a2 2 0 0 1 2 2v4.25a.75.75 0 0 1-.75.75h-3.5a.75.75 0 0 1-.75-.75V19a2 2 0 0 1 2-2zm2.982-16a2 2 0 0 1 1.414.586l4.018 4.018A2 2 0 0 1 21 7.018V21a2 2 0 0 1-2 2h-2.75a.75.75 0 0 1 0-1.5H19a.5.5 0 0 0 .5-.5V7.018a.5.5 0 0 0-.146-.354l-4.018-4.018a.5.5 0 0 0-.354-.146H5a.5.5 0 0 0-.5.5v18a.5.5 0 0 0 .5.5h1.75a.75.75 0 0 1 0 1.5H5a2 2 0 0 1-2-2V3a2 2 0 0 1 2-2zM12 18.5h-1a.5.5 0 0 0-.5.5v3.5h2V19a.5.5 0 0 0-.5-.5m1.25-3.5a.75.75 0 0 1 0 1.5h-1a.75.75 0 0 1 0-1.5zm-2.5-1.5a.75.75 0 0 1 0 1.5h-1a.75.75 0 0 1 0-1.5Zm2.5-1.5a.75.75 0 0 1 0 1.5h-1a.75.75 0 0 1 0-1.5Zm-2.5-1.5a.75.75 0 0 1 0 1.5h-1a.75.75 0 0 1 0-1.5zm2.5-1.5a.75.75 0 0 1 0 1.5h-1a.75.75 0 0 1 0-1.5zm-2.5-1.5a.75.75 0 0 1 0 1.5h-1a.75.75 0 0 1 0-1.5Zm2.5-1.5a.75.75 0 0 1 0 1.5h-1a.75.75 0 0 1 0-1.5Zm-2.5-1.5a.75.75 0 0 1 0 1.5h-1a.75.75 0 0 1 0-1.5zm2.5-1.5a.75.75 0 0 1 0 1.5h-1a.75.75 0 0 1 0-1.5z"/></svg>