<svg xmlns="http://www.w3.org/2000/svg" width="16" height="16" viewBox="0 0 16 16"><path d="M5 1c.551 0 1.07.259 1.4.7l.9 1.2a.25.25 0 0 0 .2.1h6.75c.966 0 1.75.784 1.75 1.75v8.5A1.75 1.75 0 0 1 14.25 15H5.375a.75.75 0 0 1 0-1.5h8.875a.25.25 0 0 0 .25-.25v-8.5a.25.25 0 0 0-.25-.25H7.5c-.551 0-1.07-.259-1.4-.7l-.9-1.2a.25.25 0 0 0-.2-.1H1.75a.25.25 0 0 0-.25.25v3a.75.75 0 0 1-1.5 0v-3C0 1.784.784 1 1.75 1zm-.85 5.344a.25.25 0 0 1 .27.046l2.883 2.677a.25.25 0 0 1 0 .366L4.42 12.11a.25.25 0 0 1-.42-.183V9.989l-.238-.001A2.25 2.25 0 0 0 1.5 12.237v1.013a.75.75 0 0 1-1.5 0v-1.013a3.75 3.75 0 0 1 3.771-3.749L4 8.489V6.573a.25.25 0 0 1 .15-.229"/></svg>