<svg xmlns="http://www.w3.org/2000/svg" width="24" height="24" viewBox="0 0 24 24"><path d="M21.587 10.803a.748.748 0 0 0 1.255-.336.75.75 0 0 0-.194-.725l-1.591-1.591 1.591-1.591a.75.75 0 0 0-1.061-1.06l-1.591 1.591L18.405 5.5a.75.75 0 0 0-1.06 1.06l1.591 1.591-1.591 1.591a.75.75 0 0 0 1.06 1.061l1.591-1.591zM1.75 7.53a.75.75 0 0 0 0 1.5H14.5a.75.75 0 1 0 0-1.5zM5 13.28a.75.75 0 0 1 .75-.75h10.5a.75.75 0 0 1 0 1.5H5.75a.75.75 0 0 1-.75-.75m4 4.938a.75.75 0 0 1 .75-.75h2.5a.75.75 0 0 1 0 1.5h-2.5a.75.75 0 0 1-.75-.75"/></svg>