<svg xmlns="http://www.w3.org/2000/svg" width="16" height="16" viewBox="0 0 16 16"><path d="M9.533.638V.637c.217 2.385 1.463 3.626 2.653 4.81 1.184 1.178 2.312 2.301 2.312 4.438 0 3.5-3 6-6.5 6s-6.498-2.488-6.498-6c0-1.298.536-2.56 1.425-3.286.376-.308.862 0 1.035.454.5 1.319 1.621 1.251 2.04.832.282-.282.341-.811-.003-1.5C4.34 3.072 7.035.635 8.77.031c.39-.137.726.194.763.607M7.998 14.385c2.832 0 5-1.98 5-4.5 0-1.463-.68-2.19-1.879-3.383l-.036-.037c-1.013-1.008-2.3-2.29-2.834-4.434-.322.256-.63.579-.864.953-.432.696-.621 1.58-.046 2.73.473.947.67 2.284-.278 3.232-.61.61-1.545.84-2.403.633a2.8 2.8 0 0 1-1.436-.874A3.2 3.2 0 0 0 3 9.885c0 2.53 2.164 4.5 4.998 4.5"/></svg>