<svg xmlns="http://www.w3.org/2000/svg" width="24" height="24" viewBox="0 0 24 24"><path d="M14 6q2.385 0 4.771 1.265l.342.186c.548.311.887.893.887 1.524v8.275a1.75 1.75 0 0 1-1.499 1.732L18.5 21.75a.75.75 0 1 1-1.5 0V19h-6v2.75a.75.75 0 1 1-1.5 0v-2.768A1.75 1.75 0 0 1 8 17.25V8.975c0-.63.339-1.213.887-1.524Q11.444 6.001 14 6m0 1.5c-1.434 0-2.886.412-4.373 1.256a.25.25 0 0 0-.127.219v8.275c0 .124.092.23.212.247l.021.003h8.533l.022-.003a.25.25 0 0 0 .205-.187l.007-.06V8.974c0-.09-.048-.173-.106-.206l-.325-.178C16.689 7.858 15.337 7.5 14 7.5M6.75 3a.75.75 0 0 1 .75-.75h1a.75.75 0 0 1 0 1.5h-1A.75.75 0 0 1 6.75 3m4 0a.75.75 0 0 1 .75-.75h1a.75.75 0 1 1 0 1.5h-1a.75.75 0 0 1-.75-.75m4 0a.75.75 0 0 1 .75-.75h1a.75.75 0 1 1 0 1.5h-1a.75.75 0 0 1-.75-.75m4 0a.75.75 0 0 1 .75-.75h1a.75.75 0 1 1 0 1.5h-1a.75.75 0 0 1-.75-.75M4 5.75a.75.75 0 0 1 .75.75v1a.75.75 0 0 1-1.5 0v-1A.75.75 0 0 1 4 5.75m0 4a.75.75 0 0 1 .75.75v1a.75.75 0 1 1-1.5 0v-1A.75.75 0 0 1 4 9.75m0 4a.75.75 0 0 1 .75.75v1a.75.75 0 1 1-1.5 0v-1a.75.75 0 0 1 .75-.75m0 4a.75.75 0 0 1 .75.75v1a.75.75 0 1 1-1.5 0v-1a.75.75 0 0 1 .75-.75"/></svg>