<svg xmlns="http://www.w3.org/2000/svg" width="16" height="16" viewBox="0 0 16 16"><path d="M6.25 2a.75.75 0 0 0 0-1.5h-.5a.75.75 0 0 0 0 1.5zM10 1.25a.75.75 0 0 1-.75.75h-.5a.75.75 0 0 1 0-1.5h.5a.75.75 0 0 1 .75.75m2.25.75a.75.75 0 1 0 0-1.5h-.5a.75.75 0 1 0 0 1.5zm-11 3.5a.75.75 0 0 0 1.5 0V5a.75.75 0 0 0-1.5 0zM2 9.25a.75.75 0 0 1-.75-.75V8a.75.75 0 0 1 1.5 0v.5a.75.75 0 0 1-.75.75m-.75 2.25a.75.75 0 1 0 1.5 0V11a.75.75 0 1 0-1.5 0zM9 4q1.69 0 3.379 1.427c.394.332.62.82.621 1.335v4.488c0 .698-.408 1.3-1 1.581v1.419a.75.75 0 1 1-1.5 0V13h-3v1.25a.75.75 0 1 1-1.5 0v-1.418a1.75 1.75 0 0 1-1-1.582V6.762c0-.515.227-1.003.62-1.335Q7.31 4 9 4m0 1.5c-.743 0-1.539.336-2.41 1.073l-.011.008-.028.031a.3.3 0 0 0-.045.097l-.006.053v4.488c0 .138.112.25.25.25h4.5a.25.25 0 0 0 .25-.25V6.763a.25.25 0 0 0-.051-.151l-.029-.031-.01-.008c-.804-.68-1.544-1.019-2.238-1.067z"/></svg>