<svg xmlns="http://www.w3.org/2000/svg" width="16" height="16" viewBox="0 0 16 16"><path d="M8.005 0a8 8 0 0 1 .701.031c.743.064 1.289.614 1.459 1.259l.288 1.107c.018.066.079.158.212.224q.347.171.668.386c.123.082.233.09.299.071l1.103-.303c.644-.176 1.392.021 1.82.63q.406.578.704 1.218c.315.675.111 1.422-.364 1.891l-.814.806c-.049.048-.098.147-.088.294q.024.386 0 .772c-.01.147.038.246.088.294l.814.806c.475.469.679 1.216.364 1.891a8 8 0 0 1-.704 1.217c-.428.61-1.176.807-1.82.63l-1.102-.302c-.067-.019-.177-.011-.3.071a6 6 0 0 1-.668.386c-.133.066-.194.158-.211.224l-.29 1.106c-.168.646-.715 1.196-1.458 1.26a8 8 0 0 1-1.402 0c-.743-.064-1.289-.614-1.458-1.26l-.289-1.106c-.018-.066-.079-.158-.212-.224a6 6 0 0 1-.668-.386c-.123-.082-.233-.09-.299-.071l-1.103.303c-.644.176-1.392-.021-1.82-.63a8 8 0 0 1-.704-1.218c-.315-.675-.111-1.422.363-1.891l.815-.806c.05-.048.098-.147.088-.294a6 6 0 0 1 0-.772c.01-.147-.038-.246-.088-.294l-.815-.806C.64 6.045.436 5.298.751 4.623a8 8 0 0 1 .704-1.217c.428-.61 1.176-.807 1.82-.63l1.102.302c.067.019.177.011.3-.071q.321-.215.668-.386c.133-.066.194-.158.211-.224l.29-1.106C6.014.645 6.561.095 7.304.03Q7.651 0 8.005 0m0 5a3 3 0 1 0 0 6 3 3 0 0 0 0-6m1.5 3a1.5 1.5 0 1 0-3 0 1.5 1.5 0 0 0 3 0"/></svg>