<svg xmlns="http://www.w3.org/2000/svg" width="24" height="24" viewBox="0 0 24 24"><path d="M12.001 1q.4 0 .797.028c.763.055 1.345.617 1.512 1.304l.352 1.45c.019.078.09.171.225.221q.37.134.728.302c.13.061.246.044.315.002l1.275-.776c.603-.368 1.411-.353 1.99.147q.605.524 1.128 1.129c.501.578.515 1.386.147 1.99l-.776 1.274c-.042.069-.058.185.002.315q.168.357.303.728c.048.135.142.205.22.225l1.45.352c.687.167 1.249.749 1.303 1.512q.057.797 0 1.594c-.054.763-.616 1.345-1.303 1.512l-1.45.352c-.078.019-.171.09-.221.225q-.134.372-.302.728c-.061.13-.044.246-.002.315l.776 1.275c.368.603.353 1.411-.147 1.99q-.524.605-1.129 1.128c-.578.501-1.386.515-1.99.147l-1.274-.776c-.069-.042-.185-.058-.314.002a9 9 0 0 1-.729.303c-.135.048-.205.142-.225.22l-.352 1.45c-.167.687-.749 1.249-1.512 1.303q-.797.057-1.594 0c-.763-.054-1.345-.616-1.512-1.303l-.352-1.45c-.019-.078-.09-.171-.225-.221a8 8 0 0 1-.728-.302c-.13-.061-.246-.044-.315-.002l-1.275.776c-.603.368-1.411.353-1.99-.147q-.605-.524-1.128-1.129c-.501-.578-.515-1.386-.147-1.99l.776-1.274c.042-.069.058-.185-.002-.314a8 8 0 0 1-.303-.729c-.048-.135-.142-.205-.22-.225l-1.45-.352c-.687-.167-1.249-.749-1.304-1.512a11 11 0 0 1 0-1.594c.055-.763.617-1.345 1.304-1.512l1.45-.352c.078-.019.171-.09.221-.225q.134-.372.302-.728c.061-.13.044-.246.002-.315l-.776-1.275c-.368-.603-.353-1.411.147-1.99q.524-.605 1.129-1.128c.578-.501 1.386-.515 1.99-.147l1.274.776c.069.042.185.058.315-.002q.357-.168.728-.303c.135-.048.205-.142.225-.22l.352-1.45c.167-.687.749-1.249 1.512-1.304Q11.599 1 12.001 1m0 7a4 4 0 1 0 0 8 4 4 0 0 0 0-8m0 1.5a2.5 2.5 0 1 1 0 5 2.5 2.5 0 0 1 0-5"/></svg>