<svg xmlns="http://www.w3.org/2000/svg" width="24" height="24" viewBox="0 0 24 24"><path d="M12.001 1c.266 0 .532.009.797.028.763.055 1.345.617 1.512 1.304l.352 1.45c.019.078.09.171.225.221.247.089.49.19.728.302.13.061.246.044.315.002l1.275-.776c.603-.368 1.411-.353 1.99.147.402.349.78.726 1.128 1.129.501.578.515 1.386.147 1.99l-.776 1.274c-.042.069-.058.185.002.315.112.238.213.481.303.728.048.135.142.205.22.225l1.45.352c.687.167 1.249.749 1.303 1.512.038.531.038 1.063 0 1.594-.054.763-.616 1.345-1.303 1.512l-1.45.352c-.078.019-.171.09-.221.225-.089.248-.19.491-.302.728-.061.13-.044.246-.002.315l.776 1.275c.368.603.353 1.411-.147 1.99-.349.402-.726.78-1.129 1.128-.578.501-1.386.515-1.99.147l-1.274-.776c-.069-.042-.185-.058-.314.002a8.888 8.888 0 0 1-.729.303c-.135.048-.205.142-.225.22l-.352 1.45c-.167.687-.749 1.249-1.512 1.303-.531.038-1.063.038-1.594 0-.763-.054-1.345-.616-1.512-1.303l-.352-1.45c-.019-.078-.09-.171-.225-.221a8.138 8.138 0 0 1-.728-.302c-.13-.061-.246-.044-.315-.002l-1.275.776c-.603.368-1.411.353-1.99-.147-.402-.349-.78-.726-1.128-1.129-.501-.578-.515-1.386-.147-1.99l.776-1.274c.042-.069.058-.185-.002-.314a7.995 7.995 0 0 1-.303-.729c-.048-.135-.142-.205-.22-.225l-1.45-.352c-.687-.167-1.249-.749-1.304-1.512a10.873 10.873 0 0 1 0-1.594c.055-.763.617-1.345 1.304-1.512l1.45-.352c.078-.019.171-.09.221-.225.089-.248.19-.491.302-.728.061-.13.044-.246.002-.315l-.776-1.275c-.368-.603-.353-1.411.147-1.99.349-.402.726-.78 1.129-1.128.578-.501 1.386-.515 1.99-.147l1.274.776c.069.042.185.058.315-.002.238-.112.481-.213.728-.303.135-.048.205-.142.225-.22l.352-1.45c.167-.687.749-1.249 1.512-1.304.263-.018.529-.028.797-.028Zm0 7a4 4 0 1 0 0 8 4 4 0 0 0 0-8Zm0 1.5a2.5 2.5 0 1 1 0 5 2.5 2.5 0 0 1 0-5Z"/></svg>