<svg xmlns="http://www.w3.org/2000/svg" width="24" height="24" viewBox="0 0 24 24"><path d="M12 1.13c1.015-.001 2.024.14 3 .419a.75.75 0 1 1-.413 1.442A9.4 9.4 0 0 0 12 2.63a9.375 9.375 0 0 0-9.375 9.375 9.375 9.375 0 1 0 18.75 0c0-.898-.126-1.766-.361-2.587a.75.75 0 0 1 1.441-.413c.274.954.42 1.96.42 3 0 6.006-4.869 10.875-10.875 10.875S1.125 18.011 1.125 12.005 5.994 1.13 12 1.13m.731 4.542a.75.75 0 1 1-.17 1.49 4.877 4.877 0 0 0-5.436 4.843 4.875 4.875 0 0 0 7.627 4.002 4.88 4.88 0 0 0 2.09-4.571.747.747 0 0 1 1.047-.798c.251.112.42.351.442.625a6.373 6.373 0 0 1-10.836 5.253 6.374 6.374 0 0 1 5.236-10.844m6.774-4.296c.089.026.155.1.173.191l.46 2.301 2.3.46c.09.018.164.084.19.173a.25.25 0 0 1-.062.249l-1.731 1.73a.94.94 0 0 1-.663.275h-1.861l-4.566 4.564a1.874 1.874 0 1 1-1.06-1.06l4.565-4.565V3.833a.94.94 0 0 1 .275-.664l1.73-1.73a.25.25 0 0 1 .25-.063"/></svg>