<?xml version="1.0" encoding="UTF-8"?>
<svg width="16px" height="16px" viewBox="0 0 16 16" version="1.1" xmlns="http://www.w3.org/2000/svg" xmlns:xlink="http://www.w3.org/1999/xlink">
    <title>icon/16/info-fill-16</title>
    <g id="icon/16/info-fill-16" stroke="none" stroke-width="1" fill="none" fill-rule="evenodd">
        <path d="M8,0 C12.418278,0 16,3.581722 16,8 C16,12.418278 12.418278,16 8,16 C3.581722,16 0,12.418278 0,8 C0,3.581722 3.581722,0 8,0 Z M8.25,7 L7.25,7 C6.83578644,7 6.5,7.33578644 6.5,7.75 C6.5,8.16421356 6.83578644,8.5 7.25,8.5 L7.5,8.5 L7.5,10.5 L7.25,10.5 C6.83578644,10.5 6.5,10.8357864 6.5,11.25 C6.5,11.6642136 6.83578644,12 7.25,12 L9.25,12 C9.66421356,12 10,11.6642136 10,11.25 C10,10.8357864 9.66421356,10.5 9.25,10.5 L9,10.5 L9,7.75 C9,7.33578644 8.66421356,7 8.25,7 Z M8,3.25 C7.30964406,3.25 6.75,3.80964406 6.75,4.5 C6.75,5.19035594 7.30964406,5.75 8,5.75 C8.69035594,5.75 9.25,5.19035594 9.25,4.5 C9.25,3.80964406 8.69035594,3.25 8,3.25 Z" id="Shape" fill="#000000" fill-rule="nonzero"></path>
    </g>
</svg>