<?xml version="1.0" encoding="UTF-8"?>
<svg width="24px" height="24px" viewBox="0 0 24 24" version="1.1" xmlns="http://www.w3.org/2000/svg" xmlns:xlink="http://www.w3.org/1999/xlink">
    <title>icon/24/info-fill-24</title>
    <g id="icon/24/info-fill-24" stroke="none" stroke-width="1" fill="none" fill-rule="evenodd">
        <path d="M12,1 C18.0751322,1 23,5.92486775 23,12 C23,18.0751322 18.0751322,23 12,23 C5.92486775,23 1,18.0751322 1,12 C1,5.92486775 5.92486775,1 12,1 Z M12.25,10.5 L10.75,10.5 C10.3357864,10.5 10,10.8357864 10,11.25 C10,11.6642136 10.3357864,12 10.75,12 L11.5,12 L11.5,15.5 L10.75,15.5 C10.3357864,15.5 10,15.8357864 10,16.25 C10,16.6642136 10.3357864,17 10.75,17 L13.75,17 C14.1642136,17 14.5,16.6642136 14.5,16.25 C14.5,15.8357864 14.1642136,15.5 13.75,15.5 L13,15.5 L13,11.25 C13,10.8357864 12.6642136,10.5 12.25,10.5 Z M11.875,6.25 C11.1156085,6.25 10.5,6.86560847 10.5,7.625 C10.5,8.38439153 11.1156085,9 11.875,9 C12.6343915,9 13.25,8.38439153 13.25,7.625 C13.25,6.86560847 12.6343915,6.25 11.875,6.25 Z" id="Combined-Shape" fill="#000000" fill-rule="nonzero"></path>
    </g>
</svg>