<svg xmlns="http://www.w3.org/2000/svg" width="24" height="24" viewBox="0 0 24 24"><path d="M12.75 2.75V4.5h1.975c.351 0 .694.106.984.303l1.697 1.154c.041.028.09.043.14.043h4.102a.75.75 0 0 1 0 1.5H20.07l3.366 7.68a.749.749 0 0 1-.23.896c-.1.074-.203.143-.31.206a6.354 6.354 0 0 1-.79.399 7.353 7.353 0 0 1-2.856.569 7.343 7.343 0 0 1-2.855-.568 6.095 6.095 0 0 1-.79-.4 3.124 3.124 0 0 1-.307-.202l-.005-.004a.749.749 0 0 1-.23-.896l3.368-7.68h-.886c-.351 0-.694-.106-.984-.303l-1.697-1.154a.249.249 0 0 0-.14-.043H12.75v14.5h4.487a.75.75 0 0 1 0 1.5H6.763a.75.75 0 0 1 0-1.5h4.487V6H9.275a.249.249 0 0 0-.14.043L7.439 7.197c-.29.197-.633.303-.984.303h-.886l3.368 7.68a.75.75 0 0 1-.209.878c-.08.065-.16.126-.31.223a6.14 6.14 0 0 1-.792.433 6.924 6.924 0 0 1-2.876.62 6.909 6.909 0 0 1-2.876-.62 6.14 6.14 0 0 1-.792-.433 3.54 3.54 0 0 1-.309-.221.762.762 0 0 1-.21-.88L3.93 7.5H2.353a.75.75 0 0 1 0-1.5h4.102c.05 0 .099-.015.141-.043l1.695-1.154c.29-.198.634-.303.985-.303h1.974V2.75a.75.75 0 0 1 1.5 0ZM2.193 15.198a5.414 5.414 0 0 0 2.557.635 5.414 5.414 0 0 0 2.557-.635L4.75 9.368l-2.557 5.83Zm14.51-.024c.082.04.174.083.275.126.53.223 1.305.45 2.272.45a5.85 5.85 0 0 0 2.547-.576L19.25 9.367l-2.547 5.807Z"/></svg>