<svg xmlns="http://www.w3.org/2000/svg" width="24" height="24" viewBox="0 0 24 24"><path d="M23 2.75v14.5a.75.75 0 0 1-.399.662c-.384.204-.783-.035-1.139-.248l-.003-.002c-.09-.054-.177-.107-.261-.15a15.4 15.4 0 0 0-2-.849c-1.738-.607-4.321-1.223-7.703-1.251l.005.088c0 2.279.494 4.279.906 5.547.368 1.131-.438 2.453-1.732 2.453H8.661c-.696 0-1.36-.42-1.6-1.129C6.684 21.255 6 18.811 6 15.75v-.457A5.501 5.501 0 0 1 7.5 4.5h3.75c3.505 0 6.175-.61 7.955-1.21a16 16 0 0 0 2.002-.82 10 10 0 0 0 .49-.262q.072-.041.142-.085A.749.749 0 0 1 23 2.75M11.5 13.912c3.564.029 6.313.678 8.193 1.335.737.258 1.34.517 1.807.74V3.993c-.467.216-1.073.467-1.815.718-1.878.634-4.624 1.26-8.185 1.288zM7.5 6a4 4 0 1 0 0 8H10V6zm0 9.75c0 2.847.638 5.123.982 6.141.018.051.074.109.179.109h2.013c.087 0 .179-.043.249-.147a.4.4 0 0 0 .057-.343c-.443-1.362-.98-3.524-.98-6.01H7.5z"/></svg>