<svg xmlns="http://www.w3.org/2000/svg" width="16" height="16" viewBox="0 0 16 16"><path d="M6.75 2c2.786 0 4.826-.484 6.155-.957.665-.236 1.154-.47 1.47-.64q.216-.116.421-.25l.014-.01A.75.75 0 0 1 16 .75v10.5a.75.75 0 0 1-1.189.608l-.015-.011a5 5 0 0 0-.422-.25 10.6 10.6 0 0 0-1.469-.64c-1.206-.43-2.998-.868-5.401-.945L7.5 9.75c0 1.588.25 2.926.494 3.85.293 1.113-.504 2.4-1.783 2.4H4.9c-.686 0-1.35-.41-1.589-1.12A16.4 16.4 0 0 1 2.5 9.75l.002-.04A4.002 4.002 0 0 1 4 2zm-.748 8-2-.001.002.085c.044 1.983.467 3.537.729 4.319a.13.13 0 0 0 .05.064.2.2 0 0 0 .117.033h1.31c.085 0 .18-.042.258-.152a.45.45 0 0 0 .075-.366A16.7 16.7 0 0 1 6.002 10M14.5 2.014c-.305.14-.669.292-1.092.443-1.356.481-3.318.953-5.906 1.031v5.023c2.589.078 4.55.55 5.906 1.032.423.151.787.302 1.092.443zM6 3.5H4a2.5 2.5 0 1 0 0 5h2z"/></svg>