<svg xmlns="http://www.w3.org/2000/svg" width="16" height="16" viewBox="0 0 16 16"><path d="M15.547 4.061A.75.75 0 0 1 16 4.75v8.5a.75.75 0 0 1-1.265.545l-4.5-4.25a.75.75 0 0 1 0-1.09l4.5-4.25a.75.75 0 0 1 .812-.144ZM0 13.25v-8.5a.75.75 0 0 1 1.265-.545l4.5 4.25a.75.75 0 0 1 0 1.09l-4.5 4.25A.75.75 0 0 1 0 13.25Zm1.5-6.76v5.02L4.158 9 1.5 6.49ZM11.842 9l2.658 2.51V6.49L11.842 9ZM8 5a.75.75 0 0 1 .75.75v.5a.75.75 0 0 1-1.5 0v-.5A.75.75 0 0 1 8 5Zm.75-2.25v.5a.75.75 0 0 1-1.5 0v-.5a.75.75 0 0 1 1.5 0Zm0 6v.5a.75.75 0 0 1-1.5 0v-.5a.75.75 0 0 1 1.5 0ZM8 11a.75.75 0 0 1 .75.75v.5a.75.75 0 0 1-1.5 0v-.5A.75.75 0 0 1 8 11Zm0 3a.75.75 0 0 1 .75.75v.5a.75.75 0 0 1-1.5 0v-.5A.75.75 0 0 1 8 14Z"/></svg>