<svg xmlns="http://www.w3.org/2000/svg" width="24" height="24" viewBox="0 0 24 24"><path d="M14.397 3.589v.001l-.002-.005a9.08 9.08 0 0 0-.218-.779c-.13-.394.21-.8.602-.67.29.096.575.205.855.328l.01.005a10.003 10.003 0 0 1-4.015 19.16 10.001 10.001 0 0 1-9.162-5.985l-.004-.01a9.722 9.722 0 0 1-.329-.855c-.13-.392.277-.732.67-.602.257.084.517.157.78.218l.004.002a9 9 0 0 0 11.04-8.768c0-.687-.078-1.371-.231-2.04Zm1.732 2.04c0 5.799-4.701 10.5-10.5 10.5-.426 0-.847-.026-1.26-.075A8.5 8.5 0 1 0 16.054 4.369c.05.413.075.833.075 1.259v.001Z"/></svg>