<svg xmlns="http://www.w3.org/2000/svg" width="24" height="24" viewBox="0 0 24 24"><path d="M12.291 3.06v-.001l11.25 4.75a.749.749 0 0 1 0 1.382l-4.542 1.917V16a.75.75 0 0 1-.11.391h-.001a2.792 2.792 0 0 1-.392.482c-.249.256-.625.58-1.163.896-1.08.638-2.776 1.23-5.334 1.23-.673 0-1.286-.041-1.846-.113a.75.75 0 0 1 .192-1.487c.492.063 1.042.1 1.654.1 2.317 0 3.746-.533 4.572-1.021.31-.178.596-.397.849-.65l.079-.085V11.74l-5.208 2.2a.75.75 0 0 1-.584 0l-5.958-2.516v3.17c.502.129.96.391 1.327.758.579.578.923 1.41.923 2.428v4.5a.76.76 0 0 1-.345.634 2.046 2.046 0 0 1-.21.117 3.86 3.86 0 0 1-.52.213 6.13 6.13 0 0 1-1.925.288 6.073 6.073 0 0 1-1.925-.288 4.113 4.113 0 0 1-.52-.213 1.906 1.906 0 0 1-.22-.124.758.758 0 0 1-.335-.624v-4.5c0-1.02.344-1.85.923-2.43a2.904 2.904 0 0 1 1.327-.757v-3.803L.457 9.19a.75.75 0 0 1 0-1.38l11.25-4.75a.75.75 0 0 1 .584 0Zm-.292 9.376L21.321 8.5l-9.322-3.936L2.677 8.5l9.322 3.936Zm-7 3.564c-.377 0-.745.141-1.017.413-.265.265-.483.7-.483 1.368v4.022c.299.105.797.228 1.5.228s1.201-.123 1.5-.228V17.78c0-.669-.218-1.103-.483-1.368A1.431 1.431 0 0 0 4.999 16Z"/></svg>