<svg xmlns="http://www.w3.org/2000/svg" width="16" height="16" viewBox="0 0 16 16"><path d="M7.692 2.066a.75.75 0 0 1 .614 0l7.25 3.25a.75.75 0 0 1 0 1.368l-2.557 1.147v2.794c0 1.024-.81 1.749-1.66 2.173-.893.447-2.075.702-3.34.702q-.417 0-.816-.036a.75.75 0 0 1 .133-1.494q.332.03.683.03c1.082 0 2.025-.221 2.67-.543.69-.345.83-.682.83-.832V8.503L8.306 9.934a.75.75 0 0 1-.614 0L3.999 8.28v1.663c.296.105.575.275.812.512.438.438.688 1.059.688 1.796v3a.75.75 0 0 1-.75.75h-3a.75.75 0 0 1-.75-.75v-3c0-.737.25-1.358.688-1.796.237-.237.516-.407.812-.512V7.606L.442 6.684a.75.75 0 0 1 0-1.368zM2.582 6l5.417 2.428L13.415 6 7.999 3.572zm-.083 6.25v2.25h1.5v-2.25c0-.388-.125-.611-.25-.735a.7.7 0 0 0-.5-.203.7.7 0 0 0-.5.203c-.125.124-.25.347-.25.735"/></svg>