<svg xmlns="http://www.w3.org/2000/svg" width="24" height="24" viewBox="0 0 24 24"><path d="M16 2a2 2 0 0 1 2 2v17q0 .26-.063.5H20a.5.5 0 0 0 .5-.5v-8a.5.5 0 0 0-.2-.4l-.5-.375a.75.75 0 0 1 .9-1.2l.5.375c.504.378.8.97.8 1.6v8a2 2 0 0 1-2 2h-3.562a1 1 0 0 1-.166-.018Q16.138 23 16 23h-3.75a.75.75 0 0 1-.75-.75V20h-3v2.25a.75.75 0 0 1-.75.75H4a2 2 0 0 1-2-2V4a2 2 0 0 1 2-2zm0 1.5H4a.5.5 0 0 0-.5.5v17a.5.5 0 0 0 .5.5h3v-2.25a.75.75 0 0 1 .75-.75h4.5a.75.75 0 0 1 .75.75v2.25h3a.5.5 0 0 0 .5-.5V4a.5.5 0 0 0-.5-.5M6.75 13a.75.75 0 0 1 0 1.5h-.5a.75.75 0 0 1 0-1.5Zm3.5 0a.75.75 0 0 1 0 1.5h-.5a.75.75 0 0 1 0-1.5zm3.5 0a.75.75 0 0 1 0 1.5h-.5a.75.75 0 0 1 0-1.5Zm-7-3.5a.75.75 0 0 1 0 1.5h-.5a.75.75 0 0 1 0-1.5zm3.5 0a.75.75 0 0 1 0 1.5h-.5a.75.75 0 0 1 0-1.5Zm3.5 0a.75.75 0 0 1 0 1.5h-.5a.75.75 0 0 1 0-1.5zm-7-3.5a.75.75 0 0 1 0 1.5h-.5a.75.75 0 0 1 0-1.5Zm3.5 0a.75.75 0 0 1 0 1.5h-.5a.75.75 0 0 1 0-1.5zm3.5 0a.75.75 0 0 1 0 1.5h-.5a.75.75 0 0 1 0-1.5Z"/></svg>