<svg xmlns="http://www.w3.org/2000/svg" width="24" height="24" viewBox="0 0 24 24"><path d="m12.876 1.484 8.25 4.763c.541.313.875.89.875 1.515v9.525c0 .626-.333 1.204-.875 1.516l-8.25 4.762a1.75 1.75 0 0 1-1.75 0l-8.25-4.763a1.75 1.75 0 0 1-.875-1.515V7.761c0-.625.334-1.202.875-1.515l8.25-4.762a1.75 1.75 0 0 1 1.75 0m-1 1.298L4.251 7.184l7.75 4.474 7.75-4.474-7.625-4.402a.25.25 0 0 0-.25 0m.875 19.123 7.625-4.402a.25.25 0 0 0 .125-.216V8.483l-7.75 4.474zM3.501 8.484v8.803c0 .09.048.172.125.216l7.625 4.402v-8.947z"/></svg>