<svg xmlns="http://www.w3.org/2000/svg" width="16" height="16" viewBox="0 0 16 16"><path d="m8.878.236 5.25 3.045c.54.314.872.89.872 1.514v6.098a1.75 1.75 0 0 1-.872 1.514l-5.25 3.045a1.75 1.75 0 0 1-1.756 0l-5.25-3.045A1.75 1.75 0 0 1 1 10.893V4.795c0-.624.332-1.201.872-1.514L7.122.236a1.75 1.75 0 0 1 1.756 0M7.875 1.534l-4.63 2.685L8 6.977l4.755-2.758-4.63-2.685a.25.25 0 0 0-.25 0M2.5 5.521v5.372c0 .09.047.171.125.216l4.625 2.683V8.276zm6.25 8.271 4.625-2.683a.25.25 0 0 0 .125-.216V5.521L8.75 8.276z"/></svg>