<svg xmlns="http://www.w3.org/2000/svg" width="16" height="16" viewBox="0 0 16 16"><path d="M11.244 13.5a.5.5 0 0 1-.5.5H1.465a.75.75 0 0 1-.714-.784A6 6 0 0 1 4.65 7.877a3.757 3.757 0 1 1 5.785-2.418 2.5 2.5 0 1 1 3.432 3.507.26.26 0 0 0-.123.22v.59c0 .067-.026.13-.073.177l-.356.356a.12.12 0 0 0-.037.088q0 .051.037.089l.356.356c.047.047.073.11.073.176v.231c0 .067-.026.13-.073.177l-.356.356a.12.12 0 0 0-.037.088q0 .051.037.089l.356.356c.047.047.073.11.073.177v.287a.25.25 0 0 1-.065.168l-.8.88a.523.523 0 0 1-.77 0l-.8-.88a.25.25 0 0 1-.065-.168zm-1.237-6.882-.065.112a3.8 3.8 0 0 1-1.104 1.147 6 6 0 0 1 2.15 1.383.9.9 0 0 1 .257.606l-.001-.68a.26.26 0 0 0-.123-.22 2.5 2.5 0 0 1-1.114-2.348m2.487-.867a.75.75 0 1 0 0 1.5.75.75 0 0 0 0-1.5"/></svg>