<svg xmlns="http://www.w3.org/2000/svg" width="24" height="24" viewBox="0 0 24 24"><path d="M9.846 2.001a5.249 5.249 0 0 1 2.519 9.857 9 9 0 0 1 4.814 3.423.94.94 0 0 1 .171.551v4.669a.5.5 0 0 1-.5.5q-5.007.002-10.015 0H1.578a.75.75 0 0 1-.728-.772 9.005 9.005 0 0 1 6.477-8.371 5.252 5.252 0 0 1 2.519-9.857m11.101 4.633a3.749 3.749 0 0 1 1.337 6.814.4.4 0 0 0-.184.33v.886a.37.37 0 0 1-.11.265l-.534.534a.19.19 0 0 0 0 .265l.534.534c.071.07.11.166.11.265v.347a.37.37 0 0 1-.11.265l-.534.534a.19.19 0 0 0 0 .265l.534.534c.071.07.111.165.11.265v.431a.38.38 0 0 1-.097.253l-1.2 1.319a.78.78 0 0 1-1.156 0l-1.2-1.319a.38.38 0 0 1-.097-.253v-5.39a.4.4 0 0 0-.184-.33 3.75 3.75 0 0 1 2.781-6.814m-.722 1.992a1.125 1.125 0 1 0 0 2.25 1.125 1.125 0 0 0 0-2.25"/></svg>