<svg xmlns="http://www.w3.org/2000/svg" width="16" height="16" viewBox="0 0 16 16"><path d="M3.626 2.533a.25.25 0 0 0-.126.217v9.5c0 .138.112.25.25.25h8.5a.25.25 0 0 0 .25-.25v-9.5a.25.25 0 0 0-.126-.217.75.75 0 0 1 .752-1.298c.541.313.874.89.874 1.515v9.5c0 .464-.184.909-.513 1.237A1.75 1.75 0 0 1 12.25 14h-8.5A1.75 1.75 0 0 1 2 12.25v-9.5c0-.625.333-1.202.874-1.515a.75.75 0 0 1 .752 1.298M5.75 0h4.5a.75.75 0 0 1 .75.75v3a.75.75 0 0 1-.75.75h-4.5A.75.75 0 0 1 5 3.75v-3A.75.75 0 0 1 5.75 0m.75 3h3V1.5h-3z"/></svg>