<svg xmlns="http://www.w3.org/2000/svg" width="16" height="16" viewBox="0 0 16 16"><path d="M4 8.5H2.5a1 1 0 0 0-1 1v5.25a.75.75 0 0 1-1.5 0V9.5A2.5 2.5 0 0 1 2.5 7H4V5.633a1.75 1.75 0 0 1 1.533-1.737l2.831-.353.76-.913c.332-.4.825-.63 1.344-.63h.782c.966 0 1.75.784 1.75 1.75v.75h2.25a.75.75 0 0 1 0 1.5H13v4h2.25a.75.75 0 0 1 0 1.5H13v.75A1.75 1.75 0 0 1 11.25 14h-.782c-.519 0-1.012-.23-1.344-.63l-.761-.912-2.83-.354A1.75 1.75 0 0 1 4 10.367zm6.276-4.91-.95 1.14a.75.75 0 0 1-.483.265l-3.124.39a.25.25 0 0 0-.219.248v4.734c0 .126.094.233.219.249l3.124.39a.75.75 0 0 1 .483.264l.95 1.14a.25.25 0 0 0 .192.09h.782a.25.25 0 0 0 .25-.25v-8.5a.25.25 0 0 0-.25-.25h-.782a.25.25 0 0 0-.192.09"/></svg>