<svg xmlns="http://www.w3.org/2000/svg" width="16" height="16" viewBox="0 0 16 16"><path d="M7.115 1.24a1.752 1.752 0 0 1 1.77 0l6.25 3.663c.536.314.865.889.865 1.51v6.427a1.75 1.75 0 0 1-1.75 1.75H1.75A1.75 1.75 0 0 1 0 12.84V6.413c0-.621.33-1.196.865-1.51l6.25-3.663Zm1.011 1.293a.252.252 0 0 0-.252 0l-5.72 3.353L6.468 8.35a2.748 2.748 0 0 1 3.066 0l4.312-2.464-5.719-3.353h-.001ZM13.15 13.09 8.772 9.65a1.25 1.25 0 0 0-1.544 0L2.85 13.09h10.3Zm1.35-5.85-3.687 2.106 3.687 2.897V7.24ZM5.187 9.346 1.5 7.24v5.003l3.687-2.897Z"/></svg>