<svg xmlns="http://www.w3.org/2000/svg" width="16" height="16" viewBox="0 0 16 16"><path d="M7.598 10.582 6.59 11.947a.45.45 0 0 1-.797-.384l.439-1.639a.5.5 0 0 0-.501-.629l-1.696.063a.449.449 0 0 1-.197-.861l1.555-.679a.5.5 0 0 0 .179-.785L4.466 5.747a.449.449 0 0 1 .551-.691l1.5.792a.5.5 0 0 0 .725-.349l.316-1.667a.45.45 0 0 1 .884 0l.316 1.667a.5.5 0 0 0 .725.349l1.5-.792a.45.45 0 0 1 .551.691l-1.106 1.286a.5.5 0 0 0 .179.785l1.555.679a.45.45 0 0 1-.197.861l-1.696-.063a.5.5 0 0 0-.501.629l.439 1.639a.45.45 0 0 1-.797.384l-1.008-1.365a.5.5 0 0 0-.804 0"/></svg>