<svg xmlns="http://www.w3.org/2000/svg" width="16" height="16" viewBox="0 0 16 16"><path d="M14.066 0h.186c.966 0 1.75.784 1.75 1.75v.186a8.75 8.75 0 0 1-2.564 6.186l-.458.459q-.472.471-.979.904v3.207c0 .608-.315 1.172-.833 1.49l-2.774 1.707a.75.75 0 0 1-1.11-.418l-.954-3.102a1 1 0 0 1-.145-.125L3.756 9.816a1 1 0 0 1-.124-.145L.53 8.717a.75.75 0 0 1-.418-1.11l1.71-2.774A1.75 1.75 0 0 1 3.312 4h3.204q.432-.508.904-.979l.459-.458A8.75 8.75 0 0 1 14.066 0M8.94 3.623h-.002l-.458.458c-.76.76-1.437 1.598-2.02 2.5l-1.5 2.317 2.143 2.143 2.317-1.5c.902-.583 1.74-1.26 2.499-2.02l.459-.458a7.25 7.25 0 0 0 2.123-5.127V1.75a.25.25 0 0 0-.25-.25h-.186A7.25 7.25 0 0 0 8.94 3.623M3.562 14.56c-.732.732-2.334 1.045-3.005 1.148a.23.23 0 0 1-.201-.064.23.23 0 0 1-.064-.201c.103-.671.416-2.273 1.15-3.003a1.504 1.504 0 0 1 2.585.635 1.5 1.5 0 0 1-.465 1.485m6.94-3.935q-.132.09-.266.175l-2.35 1.521.548 1.783 1.949-1.2a.25.25 0 0 0 .119-.213zM3.68 8.116l1.522-2.35q.087-.135.176-.266H3.311a.25.25 0 0 0-.213.119l-1.2 1.95zM12.002 5a1 1 0 1 1-2 0 1 1 0 0 1 2 0"/></svg>