<svg xmlns="http://www.w3.org/2000/svg" width="24" height="24" viewBox="0 0 24 24"><path d="M20.324.75H21.5a1.75 1.75 0 0 1 1.75 1.749v1.177a10.75 10.75 0 0 1-2.925 7.374l-1.228 1.304a23.699 23.699 0 0 1-1.596 1.542v5.038c0 .615-.323 1.184-.85 1.5l-4.514 2.709a.75.75 0 0 1-1.12-.488l-.963-4.572a1.321 1.321 0 0 1-.14-.129L8.042 15.96l-1.994-1.873a1.223 1.223 0 0 1-.129-.14l-4.571-.963a.75.75 0 0 1-.49-1.12l2.71-4.514c.316-.527.885-.85 1.5-.85h5.037a23.668 23.668 0 0 1 1.542-1.594l1.304-1.23A10.751 10.751 0 0 1 20.323.75h.001ZM13.98 4.768v-.001l-1.304 1.23a22.275 22.275 0 0 0-3.255 3.851l-2.193 3.29 1.859 1.744a.545.545 0 0 1 .034.034l1.743 1.858 3.288-2.192a22.263 22.263 0 0 0 3.854-3.257l1.228-1.303a9.251 9.251 0 0 0 2.517-6.346V2.5a.25.25 0 0 0-.25-.25h-1.177a9.252 9.252 0 0 0-6.344 2.518ZM6.502 21c-1.209 1.209-3.901 1.445-4.743 1.49a.236.236 0 0 1-.18-.067.236.236 0 0 1-.067-.18c.045-.842.281-3.534 1.49-4.743.9-.9 2.6-.9 3.5 0 .9.9.9 2.6 0 3.5Zm-.592-8.588 2.262-3.395c.23-.346.47-.685.717-1.017H5.068a.25.25 0 0 0-.214.121l-2.167 3.612 3.223.679Zm10.092 2.7c-.333.248-.672.487-1.018.718l-3.393 2.262.678 3.223 3.612-2.167a.25.25 0 0 0 .121-.214v-3.822ZM17.502 8a1.499 1.499 0 0 1-2.251 1.299A1.502 1.502 0 1 1 17.502 8Z"/></svg>