<svg width="16px" height="16px" viewBox="0 0 16 16" version="1.1" xmlns="http://www.w3.org/2000/svg" xmlns:xlink="http://www.w3.org/1999/xlink">
    <path d="M3,10 C4.65685425,10 6,11.3431458 6,13 C6,14.6568542 4.65685425,16 3,16 C1.34314575,16 0,14.6568542 0,13 C0,11.3431458 1.34314575,10 3,10 Z M3,11.5 C2.17157288,11.5 1.5,12.1715729 1.5,13 C1.5,13.8284271 2.17157288,14.5 3,14.5 C3.82842712,14.5 4.5,13.8284271 4.5,13 C4.5,12.1715729 3.82842712,11.5 3,11.5 Z M6,9.25 C6.41421356,9.25 6.75,9.58578644 6.75,10 C6.75,10.4142136 6.41421356,10.75 6,10.75 C5.58578644,10.75 5.25,10.4142136 5.25,10 C5.25,9.58578644 5.58578644,9.25 6,9.25 Z M10,5.25 C10.4142136,5.25 10.75,5.58578644 10.75,6 C10.75,6.41421356 10.4142136,6.75 10,6.75 C9.58578644,6.75 9.25,6.41421356 9.25,6 C9.25,5.58578644 9.58578644,5.25 10,5.25 Z M13,0 C14.6568542,0 16,1.34314575 16,3 C16,4.65685425 14.6568542,6 13,6 C11.3431458,6 10,4.65685425 10,3 C10,1.34314575 11.3431458,0 13,0 Z M13,1.5 C12.1715729,1.5 11.5,2.17157288 11.5,3 C11.5,3.82842712 12.1715729,4.5 13,4.5 C13.8284271,4.5 14.5,3.82842712 14.5,3 C14.5,2.17157288 13.8284271,1.5 13,1.5 Z M8,8.75 C8.41421356,8.75 8.75,8.41421356 8.75,8 C8.75,7.58578644 8.41421356,7.25 8,7.25 C7.58578644,7.25 7.25,7.58578644 7.25,8 C7.25,8.41421356 7.58578644,8.75 8,8.75 Z" />
</svg>
