<svg xmlns="http://www.w3.org/2000/svg" width="24" height="24" viewBox="0 0 24 24"><path d="M4.5 15.5a4 4 0 1 1 0 8 4 4 0 0 1 0-8m0 1.5a2.5 2.5 0 1 0 0 5 2.5 2.5 0 0 0 0-5m0 1.5a1 1 0 1 1 0 2 1 1 0 0 1 0-2m4-3.75a.75.75 0 1 1 0 1.5.75.75 0 0 1 0-1.5M19.5.5a4 4 0 1 1-2.302 7.272.749.749 0 0 1-1.448-.272.75.75 0 0 1 .478-.699A4 4 0 0 1 19.5.5m0 1.5a2.5 2.5 0 1 0 0 5 2.5 2.5 0 0 0 0-5m0 1.5a1 1 0 1 1 0 2 1 1 0 0 1 0-2m-9 10.75a.75.75 0 1 0 0-1.5.75.75 0 0 0 0 1.5m2-2a.75.75 0 1 0 0-1.5.75.75 0 0 0 0 1.5m2-2a.75.75 0 1 0 0-1.5.75.75 0 0 0 0 1.5"/></svg>