<svg width="24px" height="24px" viewBox="0 0 24 24" version="1.1" xmlns="http://www.w3.org/2000/svg" xmlns:xlink="http://www.w3.org/1999/xlink">
    <path d="M4.5,15.5 C6.709139,15.5 8.5,17.290861 8.5,19.5 C8.5,21.709139 6.709139,23.5 4.5,23.5 C2.290861,23.5 0.5,21.709139 0.5,19.5 C0.5,17.290861 2.290861,15.5 4.5,15.5 Z M4.5,17 C3.11928813,17 2,18.1192881 2,19.5 C2,20.8807119 3.11928813,22 4.5,22 C5.88071187,22 7,20.8807119 7,19.5 C7,18.1192881 5.88071187,17 4.5,17 Z M4.5,18.5 C5.05228475,18.5 5.5,18.9477153 5.5,19.5 C5.5,20.0522847 5.05228475,20.5 4.5,20.5 C3.94771525,20.5 3.5,20.0522847 3.5,19.5 C3.5,18.9477153 3.94771525,18.5 4.5,18.5 Z M8.5,14.75 C8.91421356,14.75 9.25,15.0857864 9.25,15.5 C9.25,15.9142136 8.91421356,16.25 8.5,16.25 C8.08578644,16.25 7.75,15.9142136 7.75,15.5 C7.75,15.0857864 8.08578644,14.75 8.5,14.75 Z M19.5,0.5 C21.709139,0.5 23.5,2.290861 23.5,4.5 C23.5,6.709139 21.709139,8.5 19.5,8.5 C18.6432088,8.5 17.8493347,8.23061972 17.1984523,7.7719337 C17.0900559,8.0518853 16.818164,8.25 16.5,8.25 C16.0857864,8.25 15.75,7.91421356 15.75,7.5 C15.75,7.18183596 15.9481147,6.90994409 16.2277114,6.80095705 C15.7693803,6.1506653 15.5,5.35679122 15.5,4.5 C15.5,2.290861 17.290861,0.5 19.5,0.5 Z M19.5,2 C18.1192881,2 17,3.11928813 17,4.5 C17,5.88071187 18.1192881,7 19.5,7 C20.8807119,7 22,5.88071187 22,4.5 C22,3.11928813 20.8807119,2 19.5,2 Z M19.5,3.5 C20.0522847,3.5 20.5,3.94771525 20.5,4.5 C20.5,5.05228475 20.0522847,5.5 19.5,5.5 C18.9477153,5.5 18.5,5.05228475 18.5,4.5 C18.5,3.94771525 18.9477153,3.5 19.5,3.5 Z M10.5,14.25 C10.9142136,14.25 11.25,13.9142136 11.25,13.5 C11.25,13.0857864 10.9142136,12.75 10.5,12.75 C10.0857864,12.75 9.75,13.0857864 9.75,13.5 C9.75,13.9142136 10.0857864,14.25 10.5,14.25 Z M12.5,12.25 C12.9142136,12.25 13.25,11.9142136 13.25,11.5 C13.25,11.0857864 12.9142136,10.75 12.5,10.75 C12.0857864,10.75 11.75,11.0857864 11.75,11.5 C11.75,11.9142136 12.0857864,12.25 12.5,12.25 Z M14.5,10.25 C14.9142136,10.25 15.25,9.91421356 15.25,9.5 C15.25,9.08578644 14.9142136,8.75 14.5,8.75 C14.0857864,8.75 13.75,9.08578644 13.75,9.5 C13.75,9.91421356 14.0857864,10.25 14.5,10.25 Z" />
</svg>
