<svg xmlns="http://www.w3.org/2000/svg" width="24" height="24" viewBox="0 0 24 24"><path d="M20.75 2c.966 0 1.75.784 1.75 1.75v7c0 .372-.116.716-.314 1 .198.284.314.628.314 1v7a1.75 1.75 0 0 1-1.75 1.75H3.25a1.75 1.75 0 0 1-1.75-1.75v-7c0-.358.109-.707.314-1a1.74 1.74 0 0 1-.314-1v-7C1.5 2.784 2.284 2 3.25 2zm0 10.5H3.25a.25.25 0 0 0-.25.25v7c0 .138.112.25.25.25h17.5a.25.25 0 0 0 .25-.25v-7a.25.25 0 0 0-.25-.25m-3.5 3a.75.75 0 0 1 0 1.5h-6.5a.75.75 0 0 1 0-1.5zm-10 0a.75.75 0 0 1 0 1.5h-.5a.75.75 0 0 1 0-1.5Zm13.5-12H3.25a.25.25 0 0 0-.25.25v7c0 .138.112.25.25.25h17.5a.25.25 0 0 0 .25-.25v-7a.25.25 0 0 0-.25-.25m-3.5 3a.75.75 0 0 1 0 1.5h-6.5a.75.75 0 0 1 0-1.5Zm-10 0a.75.75 0 0 1 0 1.5h-.5a.75.75 0 0 1 0-1.5z"/></svg>