<svg xmlns="http://www.w3.org/2000/svg" width="24" height="24" viewBox="0 0 24 24"><path d="M12.557 1.087a1.75 1.75 0 0 0-1.08 0L6.035 2.855a.752.752 0 0 0-.27 1.271c.2.18.479.239.734.156l5.441-1.768a.24.24 0 0 1 .154 0l8.25 2.675a.25.25 0 0 1 .173.237v5.024c0 1.284-.24 2.83-.696 3.971a.751.751 0 0 0 .802 1.041.75.75 0 0 0 .59-.484c.544-1.358.804-3.101.804-4.528V5.426a1.75 1.75 0 0 0-1.21-1.664zM2.034 4.793l-.974-.748a.752.752 0 0 1 .914-1.19l20.5 15.75a.75.75 0 0 1-.914 1.19l-2.012-1.546-.702.852-.008.009-.008.01c-1.603 1.821-3.731 3.223-6.214 4.16a1.7 1.7 0 0 1-1.198-.001c-5.63-2.124-9.401-6.64-9.401-12.829v-5.5q0-.082.017-.157m1.483 1.139v4.518c0 5.461 3.281 9.483 8.431 11.426a.2.2 0 0 0 .138 0c2.283-.861 4.192-2.131 5.61-3.738l.662-.803z"/></svg>