<svg xmlns="http://www.w3.org/2000/svg" width="24" height="24" viewBox="0 0 24 24"><path d="M11.477.586a1.734 1.734 0 0 1 1.08 0l8.25 2.675c.721.233 1.21.905 1.21 1.664v5.024c0 6.19-3.77 10.705-9.401 12.83a1.704 1.704 0 0 1-1.198 0c-5.63-2.126-9.401-6.64-9.401-12.83V4.925c0-.76.49-1.43 1.21-1.664l8.25-2.675Zm.617 1.426a.239.239 0 0 0-.154 0L3.69 4.689a.25.25 0 0 0-.173.237v5.023c0 5.461 3.28 9.483 8.43 11.426a.21.21 0 0 0 .14 0c5.15-1.943 8.43-5.965 8.43-11.426V4.925a.248.248 0 0 0-.173-.237l-8.25-2.676Zm.923 9.669v2.768a1 1 0 0 1-2 0v-2.768a2.001 2.001 0 1 1 2 0Z"/></svg>