<svg xmlns="http://www.w3.org/2000/svg" width="24" height="24" viewBox="0 0 24 24"><path d="m12.557.587 8.25 2.675a1.75 1.75 0 0 1 1.21 1.664V9.95c0 6.19-3.771 10.704-9.401 12.83a1.7 1.7 0 0 1-1.198 0c-5.631-2.125-9.401-6.64-9.401-12.83V4.926c0-.758.489-1.43 1.21-1.664l8.25-2.675a1.75 1.75 0 0 1 1.08 0m-.617 1.426L3.69 4.689a.25.25 0 0 0-.173.237V9.95c0 5.46 3.28 9.483 8.43 11.426a.2.2 0 0 0 .14 0c5.15-1.943 8.43-5.965 8.43-11.426V4.926a.25.25 0 0 0-.173-.237l-8.25-2.676a.25.25 0 0 0-.154 0m3.547 6.657a.75.75 0 0 1 1.06 1.06l-5 5a.75.75 0 0 1-1.06 0l-2.5-2.5a.75.75 0 0 1 1.06-1.06l1.97 1.97Z"/></svg>