<svg xmlns="http://www.w3.org/2000/svg" width="17" height="16" viewBox="0 0 17 16"><path d="M8.55.083a1.75 1.75 0 0 0-1.066 0l-2.091.67a.75.75 0 0 0 .457 1.428l2.09-.67a.25.25 0 0 1 .153 0l5.25 1.68a.25.25 0 0 1 .174.239v3.52q0 .35-.025.694a.752.752 0 0 0 1.079.753.75.75 0 0 0 .416-.641q.03-.404.03-.806V3.43A1.75 1.75 0 0 0 13.8 1.763zM1.017 2.807l-.69-.5a.75.75 0 1 1 .88-1.214l14.5 10.5a.748.748 0 0 1-.123 1.307.75.75 0 0 1-.757-.093l-1.282-.928c-.995 1.397-2.553 2.624-4.864 3.608-.425.181-.905.18-1.329 0-2.447-1.042-4.049-2.356-5.032-3.855S1.017 8.516 1.017 6.95zm1.5 1.086V6.95c0 1.358.275 2.666 1.057 3.86.784 1.194 2.121 2.34 4.366 3.297.05.02.106.02.153 0 2.127-.905 3.439-1.982 4.237-3.108z"/></svg>