<svg xmlns="http://www.w3.org/2000/svg" width="24" height="24" viewBox="0 0 24 24"><path d="m12.557.587 8.25 2.675a1.75 1.75 0 0 1 1.21 1.664V9.95c0 6.19-3.771 10.704-9.401 12.83a1.704 1.704 0 0 1-1.198 0c-5.631-2.125-9.401-6.64-9.401-12.83V4.926c0-.758.489-1.43 1.21-1.664l8.25-2.675a1.748 1.748 0 0 1 1.08 0Zm-.617 1.426L3.69 4.689a.25.25 0 0 0-.173.237V9.95c0 5.46 3.28 9.483 8.43 11.426a.199.199 0 0 0 .14 0c5.15-1.943 8.43-5.965 8.43-11.426V4.926a.25.25 0 0 0-.173-.237l-8.25-2.676a.253.253 0 0 0-.154 0Zm2.797 5.657a.75.75 0 0 1 1.06 1.06l-2.72 2.72 2.72 2.72a.753.753 0 0 1 .216.735.752.752 0 0 1-1.276.325l-2.72-2.72-2.72 2.72a.75.75 0 1 1-1.06-1.06l2.72-2.72-2.72-2.72a.75.75 0 0 1 1.06-1.06l2.72 2.72Z"/></svg>