<svg xmlns="http://www.w3.org/2000/svg" width="16" height="16" viewBox="0 0 16 16"><path d="M7.484.083c.347-.111.72-.111 1.066 0l5.25 1.68a1.75 1.75 0 0 1 1.217 1.667v3.52c0 1.566-.32 3.182-1.303 4.682-.983 1.498-2.585 2.813-5.032 3.855a1.7 1.7 0 0 1-1.33 0c-2.447-1.042-4.049-2.357-5.032-3.855-.983-1.5-1.303-3.116-1.303-4.682V3.43a1.75 1.75 0 0 1 1.217-1.667zm.61 1.429a.25.25 0 0 0-.153 0l-5.25 1.68a.25.25 0 0 0-.174.238v3.52c0 1.358.275 2.666 1.057 3.86.784 1.194 2.121 2.34 4.366 3.297a.2.2 0 0 0 .154 0c2.245-.956 3.582-2.104 4.366-3.298.782-1.193 1.057-2.499 1.057-3.859V3.43a.25.25 0 0 0-.174-.237l-5.25-1.68zM8.767 4.7v3a.75.75 0 0 1-1.5 0v-3a.75.75 0 0 1 1.5 0m.25 5.75a1 1 0 1 1-2 0 1 1 0 0 1 2 0"/></svg>