<?xml version="1.0" encoding="UTF-8"?>
<svg width="16px" height="16px" viewBox="0 0 16 16" version="1.1" xmlns="http://www.w3.org/2000/svg" xmlns:xlink="http://www.w3.org/1999/xlink">
    <title>icon/16/signals-16</title>
    <g id="icon/16/signals-16" stroke="none" stroke-width="1" fill="none" fill-rule="evenodd">
        <path d="M8,0 C10.209139,0 12,1.790861 12,4 L12,8.5 C12,10.709139 10.209139,12.5 8,12.5 C5.790861,12.5 4,10.709139 4,8.5 L4,4 C4,1.790861 5.790861,0 8,0 Z M8,1.5 C6.61928813,1.5 5.5,2.61928813 5.5,4 L5.5,8.5 C5.5,9.88071187 6.61928813,11 8,11 C9.38071187,11 10.5,9.88071187 10.5,8.5 L10.5,4 C10.5,2.61928813 9.38071187,1.5 8,1.5 Z M8,7 C8.82842712,7 9.5,7.67157288 9.5,8.5 C9.5,9.32842712 8.82842712,10 8,10 C7.17157288,10 6.5,9.32842712 6.5,8.5 C6.5,7.67157288 7.17157288,7 8,7 Z M8,2.5 C8.82842712,2.5 9.5,3.17157288 9.5,4 C9.5,4.82842712 8.82842712,5.5 8,5.5 C7.17157288,5.5 6.5,4.82842712 6.5,4 C6.5,3.17157288 7.17157288,2.5 8,2.5 Z M9.00018797,13.3999437 L9,16 L7,16 L6.9988136,13.3997409 C7.32229129,13.4654854 7.65711499,13.5 8,13.5 C8.34253225,13.5 8.67701976,13.4655564 9.00018797,13.3999437 Z" id="Combined-Shape" fill="#000000" fill-rule="nonzero"></path>
    </g>
</svg>