<?xml version="1.0" encoding="UTF-8"?>
<svg width="24px" height="24px" viewBox="0 0 24 24" version="1.1" xmlns="http://www.w3.org/2000/svg" xmlns:xlink="http://www.w3.org/1999/xlink">
    <title>icon/24/signals-24</title>
    <g id="icon/24/signals-24" stroke="none" stroke-width="1" fill="none" fill-rule="evenodd">
        <path d="M12,0.5 C14.7614237,0.5 17,2.73857625 17,5.5 L17,11 C17,13.7614237 14.7614237,16 12,16 C9.23857625,16 7,13.7614237 7,11 L7,5.5 C7,2.73857625 9.23857625,0.5 12,0.5 Z M12,2 C10.0670034,2 8.5,3.56700338 8.5,5.5 L8.5,11 C8.5,12.9329966 10.0670034,14.5 12,14.5 C13.9329966,14.5 15.5,12.9329966 15.5,11 L15.5,5.5 C15.5,3.56700338 13.9329966,2 12,2 Z M12,9 C13.1045695,9 14,9.8954305 14,11 C14,12.1045695 13.1045695,13 12,13 C10.8954305,13 10,12.1045695 10,11 C10,9.8954305 10.8954305,9 12,9 Z M12,3.5 C13.1045695,3.5 14,4.3954305 14,5.5 C14,6.6045695 13.1045695,7.5 12,7.5 C10.8954305,7.5 10,6.6045695 10,5.5 C10,4.3954305 10.8954305,3.5 12,3.5 Z M13.5008317,17.3348013 L13.5,22.75 C13.5,22.8880712 13.3880712,23 13.25,23 L10.75,23 C10.6119288,23 10.5,22.8880712 10.5,22.75 L10.4996958,17.3349196 C10.9813078,17.4428739 11.4836221,17.5 12,17.5 C12.5165665,17.5 13.019059,17.4428321 13.5008317,17.3348013 Z" id="Shape" fill="#000000" fill-rule="nonzero"></path>
    </g>
</svg>