<svg xmlns="http://www.w3.org/2000/svg" width="24" height="24" viewBox="0 0 24 24"><path d="M19 6.75a.75.75 0 0 1-.75.75h-4a.75.75 0 0 1 0-1.5h4a.75.75 0 0 1 .75.75Zm-8.5.75v1.25a.75.75 0 0 0 1.5 0v-4a.75.75 0 0 0-1.5 0V6H5.75a.75.75 0 0 0 0 1.5h4.75Zm1.25 5.25a.75.75 0 0 0 0-1.5h-6a.75.75 0 0 0 0 1.5h6ZM19 12a.75.75 0 0 1-.75.75H15.5V14a.75.75 0 0 1-1.5 0v-4a.75.75 0 0 1 1.5 0v1.25h2.75A.75.75 0 0 1 19 12Zm-9 5.25v-2a.75.75 0 0 0-1.5 0v1.25H5.75a.75.75 0 0 0 0 1.5H8.5v1.25a.75.75 0 0 0 1.5 0v-2Zm9 0a.75.75 0 0 1-.75.75h-6a.75.75 0 0 1 0-1.5h6a.75.75 0 0 1 .75.75Z"/></svg>