<svg xmlns="http://www.w3.org/2000/svg" width="24" height="24" viewBox="0 0 24 24"><path d="M12 1c6.075 0 11 4.925 11 11s-4.925 11-11 11S1 18.075 1 12 5.925 1 12 1Zm0 1.5A9.5 9.5 0 0 0 2.5 12a9.5 9.5 0 0 0 9.5 9.5 9.5 9.5 0 0 0 9.5-9.5A9.5 9.5 0 0 0 12 2.5ZM9.026 14.352a.746.746 0 0 1 .498.312c.17.187.362.352.572.492A3.382 3.382 0 0 0 12 15.72c.855 0 1.487-.283 1.904-.562.21-.14.402-.305.572-.492l.021-.026a.75.75 0 1 1 1.197.905l-.027.034c-.013.016-.03.038-.052.063a4.5 4.5 0 0 1-.879.764A4.881 4.881 0 0 1 12 17.22a4.884 4.884 0 0 1-2.736-.814 4.547 4.547 0 0 1-.695-.566 3.43 3.43 0 0 1-.236-.261c-.259-.332-.223-.824.123-1.084a.747.747 0 0 1 .57-.143ZM7.75 9.5a1.25 1.25 0 1 1 0 2.5 1.25 1.25 0 0 1 0-2.5Zm8.5 0a1.25 1.25 0 1 1 0 2.5 1.25 1.25 0 0 1 0-2.5Z"/></svg>