<svg xmlns="http://www.w3.org/2000/svg" width="24" height="24" viewBox="0 0 24 24"><path d="M12 2c6.136 0 11.111 4.975 11.111 11.111C23.111 18.778 22 21 12 21S.889 18.778.889 13.111C.889 6.975 5.864 2 12 2m0 1.5a9.61 9.61 0 0 0-9.611 9.611c0 5.42 1.17 6.389 9.611 6.389 8.44 0 9.611-.969 9.611-6.389A9.61 9.61 0 0 0 12 3.5M6.401 9.274l4.814 3.9a1.75 1.75 0 1 1-.943 1.165l-4.815-3.9A.75.75 0 0 1 6.4 9.274M4.75 11.5a.75.75 0 1 1 0 1.5.75.75 0 0 1 0-1.5m14.5 0a.75.75 0 1 1 0 1.5.75.75 0 0 1 0-1.5M17 7a.75.75 0 1 1 0 1.5.75.75 0 0 1 0-1.5M7 7a.75.75 0 1 1 0 1.5A.75.75 0 0 1 7 7m5-2a.75.75 0 1 1 0 1.5.75.75 0 0 1 0-1.5"/></svg>