<svg xmlns="http://www.w3.org/2000/svg" width="16" height="16" viewBox="0 0 16 16"><path d="M8 0a8 8 0 0 1 8 8c0 5.418-1.582 7-8 7s-8-1.582-8-7a8 8 0 0 1 8-8m0 1.5A6.5 6.5 0 0 0 1.5 8c0 4.633.968 5.5 6.5 5.5s6.5-.867 6.5-5.5A6.5 6.5 0 0 0 8 1.5M4.949 5.722 7.473 7.84a1.499 1.499 0 1 1 .645 2.904 1.503 1.503 0 0 1-1.61-1.755L3.985 6.87a.75.75 0 1 1 .965-1.148M3.5 7a.75.75 0 1 1 0 1.5.75.75 0 0 1 0-1.5m9 0a.75.75 0 1 1 0 1.5.75.75 0 0 1 0-1.5M5 4a.75.75 0 1 1 0 1.5A.75.75 0 0 1 5 4m6 0a.75.75 0 1 1 0 1.5.75.75 0 0 1 0-1.5M8 3a.75.75 0 1 1 0 1.5A.75.75 0 0 1 8 3"/></svg>