<svg xmlns="http://www.w3.org/2000/svg" width="24" height="24" viewBox="0 0 24 24"><path d="M22.133 16.07a.75.75 0 0 1-.231 1.035l-8.965 5.685a1.75 1.75 0 0 1-1.874 0l-8.965-5.685a.75.75 0 1 1 .804-1.267l8.964 5.685a.25.25 0 0 0 .268 0l8.964-5.685a.75.75 0 0 1 1.035.232m-.285-4.263a.752.752 0 0 1 .054 1.298l-8.965 5.685a1.75 1.75 0 0 1-1.874 0l-8.965-5.685a.75.75 0 1 1 .804-1.267l8.964 5.685a.25.25 0 0 0 .268 0l8.964-5.685a.75.75 0 0 1 .75-.031M12.937 1.202l8.383 5.316a1.75 1.75 0 0 1 0 2.956l-8.383 5.316a1.75 1.75 0 0 1-1.874 0L2.68 9.474a1.75 1.75 0 0 1 0-2.956l8.383-5.316a1.75 1.75 0 0 1 1.874 0m-1.071 1.267L3.483 7.785a.25.25 0 0 0 0 .422l8.383 5.316a.25.25 0 0 0 .268 0l8.383-5.316a.25.25 0 0 0 0-.422l-8.383-5.316a.25.25 0 0 0-.268 0"/></svg>