<svg xmlns="http://www.w3.org/2000/svg" width="16" height="16" viewBox="0 0 16 16"><path d="M14.186 1.001V1l1.422 2.464a1.747 1.747 0 0 1-.757 2.451L3.106 11.571a1.75 1.75 0 0 1-2.275-.702l-.447-.775a1.75 1.75 0 0 1 .53-2.32L11.684.431A1.742 1.742 0 0 1 13.06.169c.475.108.883.409 1.126.832Zm-4.709 9.32h-.001l2.644 3.863a.75.75 0 0 1-1.238.848l-1.881-2.75v2.826a.75.75 0 0 1-1.5 0v-2.826l-1.881 2.75a.751.751 0 0 1-1.238-.848l2.049-2.992a.746.746 0 0 1 .293-.253l1.809-.87a.748.748 0 0 1 .944.252Zm-.039-6.543h-.001l-4.97 3.39.942 1.63 5.42-2.61-1.391-2.41Zm3.091-2.108h.001l-1.85 1.26 1.505 2.605 2.016-.97a.247.247 0 0 0 .13-.151.247.247 0 0 0-.022-.199l-1.422-2.464a.25.25 0 0 0-.358-.081ZM1.758 9.015a.25.25 0 0 0-.075.33l.447.775a.251.251 0 0 0 .325.1l1.598-.769-.83-1.436-1.465 1Z"/></svg>