<svg xmlns="http://www.w3.org/2000/svg" width="16" height="16" viewBox="0 0 16 16"><path d="M11.841.26a1.5 1.5 0 0 1 2.144.49l1.692 2.93a1.497 1.497 0 0 1-.649 2.102L2.831 11.655a1.5 1.5 0 0 1-1.95-.602l-.68-1.176a1.5 1.5 0 0 1 .455-1.99L11.841.262zm-3.374 9.79a.75.75 0 0 1 .944.253l2.644 3.864a.751.751 0 0 1-1.238.847l-1.881-2.75v2.826a.75.75 0 1 1-1.5 0v-2.826l-1.881 2.75a.75.75 0 1 1-1.238-.848l2.048-2.992a.76.76 0 0 1 .293-.252zm2.476-3.965v-.001l1.356-.653-1.52-2.631-1.243.848zM3.215 7.959l.835 1.445 1.355-.653-.947-1.64z"/></svg>