<svg xmlns="http://www.w3.org/2000/svg" width="16" height="16" viewBox="0 0 16 16"><path d="M8.834 15.986c.763-.087 1.499-.295 2.011-.884.504-.581.655-1.378.655-2.299 0-.312-.039-.706-.085-1.087l-.087-.663h1.422c.603 0 1.174-.086 1.669-.334.508-.254.91-.679 1.136-1.2.426-.936.438-2.268.232-3.97l-.172-1.302c-.071-.52-.141-.983-.224-1.383-.132-.63-.316-1.209-.669-1.672C13.97.205 12.706.053 11 .053c-1.716 0-3.034.286-4.137.583l-1.348.376a9 9 0 0 1-1.103.241A1.75 1.75 0 0 0 2.75.053h-1A1.75 1.75 0 0 0 0 1.803v7.5c0 .966.784 1.75 1.75 1.75h1a1.75 1.75 0 0 0 1.514-.872c.259.105.59.268.919.508.671.491 1.317 1.285 1.317 2.614v.5c0 1.153.916 2.245 2.175 2.195zM4.5 2.754c.565-.071 1.116-.21 1.663-.363l.85-.241.517-.138c.97-.249 2.072-.459 3.47-.459 1.794 0 2.28.222 2.529.548.147.193.275.505.393 1.07.066.314.123.674.182 1.098l.153 1.132c.25 1.882.19 2.933-.067 3.497a.92.92 0 0 1-.443.48c-.208.104-.52.175-.997.175H11c-.685 0-1.295.577-1.205 1.335l.138 1.068c.039.314.067.608.067.847 0 .808-.144 1.15-.288 1.316-.137.157-.401.303-1.048.377-.307.035-.664-.237-.664-.693v-.5c0-1.922-.978-3.127-1.932-3.825A5.9 5.9 0 0 0 4.5 8.669zM2.75 9.552h-1a.25.25 0 0 1-.25-.25v-7.5a.25.25 0 0 1 .25-.25h1a.25.25 0 0 1 .25.25v7.5a.25.25 0 0 1-.25.25"/></svg>