<svg xmlns="http://www.w3.org/2000/svg" width="16" height="16" viewBox="0 0 16 16"><path d="m8.177.673 2.896 2.896a.25.25 0 0 1-.177.427H8.75v1.25a.75.75 0 1 1-1.5 0v-1.25H5.104a.25.25 0 0 1-.177-.427L7.823.673a.25.25 0 0 1 .354 0M7.25 10.746a.75.75 0 0 1 1.5 0v1.25h2.146a.25.25 0 0 1 .231.155.25.25 0 0 1-.054.272l-2.896 2.896a.25.25 0 0 1-.177.074.25.25 0 0 1-.177-.074l-2.896-2.896a.25.25 0 0 1-.054-.272.25.25 0 0 1 .231-.155H7.25zm-5-2a.75.75 0 1 0 0-1.5h-.5a.75.75 0 0 0 0 1.5zM6 7.996a.75.75 0 0 1-.75.75h-.5a.75.75 0 1 1 0-1.5h.5a.75.75 0 0 1 .75.75m2.25.75a.75.75 0 1 0 0-1.5h-.5a.75.75 0 0 0 0 1.5zm3.75-.75a.75.75 0 0 1-.75.75h-.5a.75.75 0 1 1 0-1.5h.5a.75.75 0 0 1 .75.75m2.25.75a.75.75 0 1 0 0-1.5h-.5a.75.75 0 0 0 0 1.5z"/></svg>