<svg xmlns="http://www.w3.org/2000/svg" width="24" height="24" viewBox="0 0 24 24"><path d="M12 14.999a.75.75 0 0 1 .75.75v4.689l1.97-1.969a.75.75 0 1 1 1.06 1.06l-3.25 3.25a.747.747 0 0 1-1.06 0l-3.25-3.25a.748.748 0 0 1 .326-1.275.75.75 0 0 1 .734.215l1.97 1.971v-4.691a.75.75 0 0 1 .75-.75m-7.5-3.75a.75.75 0 0 1 0 1.5h-1a.75.75 0 1 1 0-1.5zm4 0a.75.75 0 0 1 0 1.5h-1a.75.75 0 1 1 0-1.5zm4 0a.75.75 0 0 1 0 1.5h-1a.75.75 0 1 1 0-1.5zm4 0a.75.75 0 0 1 0 1.5h-1a.75.75 0 1 1 0-1.5zm4 0a.75.75 0 0 1 0 1.5h-1a.75.75 0 1 1 0-1.5zm-7.97-10.03 3.25 3.25a.75.75 0 0 1-1.06 1.06L12.75 3.56v4.689a.75.75 0 1 1-1.5 0V3.558L9.28 5.529a.75.75 0 0 1-1.06-1.06l3.25-3.25a.75.75 0 0 1 1.06 0"/></svg>