<svg xmlns="http://www.w3.org/2000/svg" width="24" height="24" viewBox="0 0 24 24"><path d="m14.136 1.2 1.375 1.01c.274.2.593.333.929.384l1.686.259a3.61 3.61 0 0 1 3.021 3.02l.259 1.687c.051.336.183.655.384.929l1.01 1.375a3.61 3.61 0 0 1 0 4.272l-1.01 1.375a2.1 2.1 0 0 0-.384.929l-.259 1.686a3.61 3.61 0 0 1-3.02 3.021l-1.687.259a2.1 2.1 0 0 0-.929.384l-1.375 1.01a3.61 3.61 0 0 1-4.272 0l-1.375-1.01a2.1 2.1 0 0 0-.929-.384l-1.686-.259a3.61 3.61 0 0 1-3.021-3.02l-.259-1.687a2.1 2.1 0 0 0-.384-.929L1.2 14.136a3.61 3.61 0 0 1 0-4.272l1.01-1.375c.201-.274.333-.593.384-.929l.259-1.686a3.61 3.61 0 0 1 3.02-3.021l1.687-.259c.336-.051.655-.183.929-.384L9.864 1.2a3.61 3.61 0 0 1 4.272 0m-3.384 1.209-1.376 1.01a3.6 3.6 0 0 1-1.589.658l-1.686.258a2.11 2.11 0 0 0-1.766 1.766l-.258 1.686a3.6 3.6 0 0 1-.658 1.59l-1.01 1.375a2.11 2.11 0 0 0 0 2.496l1.01 1.376a3.6 3.6 0 0 1 .658 1.589l.258 1.686a2.11 2.11 0 0 0 1.766 1.765l1.686.26c.575.087 1.12.313 1.59.657l1.375 1.01a2.11 2.11 0 0 0 2.496 0l1.376-1.01a3.6 3.6 0 0 1 1.589-.658l1.686-.258a2.11 2.11 0 0 0 1.765-1.766l.26-1.686a3.6 3.6 0 0 1 .657-1.59l1.01-1.375a2.11 2.11 0 0 0 0-2.496l-1.01-1.376a3.6 3.6 0 0 1-.658-1.589l-.258-1.686a2.11 2.11 0 0 0-1.766-1.766l-1.686-.258a3.6 3.6 0 0 1-1.59-.658l-1.375-1.01a2.11 2.11 0 0 0-2.496 0M12 15.5a1 1 0 1 1 0 2 1 1 0 0 1 0-2m0-9c.658 0 1.37.195 1.934.619a2.45 2.45 0 0 1 1.003 2.006c0 1.083-.562 1.783-1.098 2.283-.162.152-.354.312-.52.452l-.222.187a4 4 0 0 0-.347.333v1.12a.75.75 0 0 1-1.5 0v-1.601l.126-.19c.214-.321.492-.582.738-.795q.146-.126.294-.249.209-.171.409-.354c.402-.376.62-.706.62-1.186a.95.95 0 0 0-.403-.806C12.766 8.118 12.384 8 12 8c-.494 0-.814.12-1.029.265-.22.146-.376.347-.488.57a.75.75 0 0 1-1.341-.67c.226-.464.57-.86.997-1.148.488-.326 1.105-.517 1.861-.517"/></svg>