<svg xmlns="http://www.w3.org/2000/svg" width="16" height="16" viewBox="0 0 16 16"><path d="m10.016 5.284.707.707a1.75 1.75 0 0 1 0 2.475L4.359 14.83a1.75 1.75 0 0 1-2.475 0l-.707-.707a1.75 1.75 0 0 1 0-2.475l6.364-6.364a1.75 1.75 0 0 1 2.475 0M8.601 6.345 7.165 7.781q.107.063.199.155l.707.707a1 1 0 0 1 .154.198l1.437-1.436a.25.25 0 0 0 0-.353l-.707-.707a.25.25 0 0 0-.354 0m3.45-6.344c.199.979.97 1.75 1.949 1.949v.1c-.979.199-1.75.97-1.949 1.95h-.101A2.5 2.5 0 0 0 10 2.05v-.1A2.5 2.5 0 0 0 11.95.001ZM15 6a1 1 0 1 0 0-2 1 1 0 0 0 0 2m.5 4a.5.5 0 1 0 0-1 .5.5 0 0 0 0 1"/></svg>