<svg xmlns="http://www.w3.org/2000/svg" width="16" height="16" viewBox="0 0 16 16"><path d="M9.545.428a1.516 1.516 0 0 1 2.437 1.713l-1.526 3.357h2.123c1.57 0 2.346 1.909 1.22 3.004l-7.34 7.142a1.25 1.25 0 0 1-.871.354h-.302a1.248 1.248 0 0 1-1.157-1.723l1.545-3.777H3.503c-1.57 0-2.346-1.909-1.22-3.004L9.544.427zm1.047 1.074L3.327 8.569a.25.25 0 0 0 .176.429h3.288a.75.75 0 0 1 .694 1.034L5.772 14.22l6.982-6.793a.25.25 0 0 0-.175-.429H9.291a.75.75 0 0 1-.683-1.06l2.008-4.418.003-.006-.004-.009-.006-.006-.008-.001q-.004 0-.009.004"/></svg>