<?xml version="1.0" encoding="UTF-8"?>
<svg width="16px" height="16px" viewBox="0 0 16 16" version="1.1" xmlns="http://www.w3.org/2000/svg" xmlns:xlink="http://www.w3.org/1999/xlink">
    <title>icon/16/triangle-up-down-16</title>
    <g id="icon/16/triangle-up-down-16" stroke="none" stroke-width="1" fill="none" fill-rule="evenodd">
        <path d="M4.42845467,5.56944689 L7.82445467,2.17344689 C7.8713568,2.12642604 7.93504104,2.1 8.00145467,2.1 C8.0678683,2.1 8.13155254,2.12642604 8.17845467,2.17344689 L11.5744547,5.56944689 C11.6461431,5.64095399 11.6676197,5.74864161 11.6288468,5.84217853 C11.5900739,5.93571546 11.4987091,5.99662805 11.3974547,5.99644729 L4.60545467,5.99644729 C4.50420023,5.99662805 4.41283543,5.93571546 4.37406252,5.84217853 C4.3352896,5.74864161 4.35676625,5.64095399 4.42845467,5.56944689 Z M4.43345467,10.4270004 L7.82945467,13.8230004 C7.8763568,13.8700213 7.94004104,13.8964473 8.00645467,13.8964473 C8.0728683,13.8964473 8.13655254,13.8700213 8.18345467,13.8230004 L11.5794547,10.4270004 C11.6511431,10.3554933 11.6726197,10.2478057 11.6338468,10.1542688 C11.5950739,10.0607318 11.5037091,9.99981924 11.4024547,10 L4.61045467,10 C4.50920023,9.99981924 4.41783543,10.0607318 4.37906252,10.1542688 C4.3402896,10.2478057 4.36176625,10.3554933 4.43345467,10.4270004 L4.43345467,10.4270004 Z" id="Path" fill="#000000" fill-rule="nonzero"></path>
    </g>
</svg>